<svg data-name="Warstwa 2" xmlns="http://www.w3.org/2000/svg" width="16.43" height="16.43"><path d="M16.43 8.22c0 4.54-3.69 8.21-8.23 8.2-4.54 0-8.2-3.68-8.2-8.23C0 3.65 3.7-.01 8.25 0c4.52.01 8.18 3.69 8.18 8.22ZM6.27 4.78c.42 1.08 1.03 1.93 1.8 2.68.15.15.28.17.48.11 2.34-.7 4.56-.41 6.66.82.07.04.14.07.24.12a7.34 7.34 0 0 0-.75-3.53c-.1-.2-.22-.31-.44-.37-1.77-.49-3.56-.59-5.37-.35-.87.12-1.73.34-2.63.52Zm-1.85 9.61c1.06.65 2.16.98 3.34 1.05.13 0 .3-.08.41-.18 1.85-1.76 3.07-3.89 3.76-6.34.06-.21.1-.43.16-.66a6.8 6.8 0 0 0-3.33.26c-.08.03-.14.17-.16.28-.53 2.35-1.82 4.16-3.88 5.41-.09.05-.18.11-.3.19Zm1.85-2.84c.1-.11.15-.16.19-.22.57-.8.96-1.68 1.18-2.64.05-.21 0-.32-.15-.46-1.31-1.2-2.17-2.66-2.5-4.4-.12-.64-.16-1.3-.24-1.97-.08.04-.17.08-.26.14-.79.47-1.45 1.08-2.03 1.79-.16.19-.19.38-.14.61.41 1.94 1.21 3.71 2.4 5.29.48.64 1.02 1.23 1.55 1.86Zm-4.71-6.2a6.69 6.69 0 0 0-.55 2.15c-.2 2.41.59 4.44 2.36 6.09.06.06.2.12.26.09.76-.34 1.44-.81 2.05-1.42-1.97-1.93-3.35-4.19-4.12-6.9Zm7.9 10c1.12-.21 2.06-.59 2.9-1.2 1.48-1.05 2.45-2.45 2.89-4.21.04-.14.13-.29-.07-.42-.66-.45-1.35-.81-2.14-1.04-.61 2.58-1.77 4.85-3.59 6.87ZM6 3.92c2.52-.8 5.05-.96 7.65-.5-.42-.42-.84-.84-1.32-1.16C10.41.96 8.32.65 6.1 1.29c-.11.03-.27.15-.28.24-.09.8-.02 1.59.18 2.39Z" style="fill:#069aff;stroke-width:0" data-name="Warstwa 1"/></svg>