<svg data-name="Warstwa 2" xmlns="http://www.w3.org/2000/svg" width="16.77" height="13.8"><path d="M.92 7.04c-.16.06-.31.13-.47.19-.42.17-.45.22-.46.66v5.29c0 .5.12.62.61.62h15.56c.49 0 .6-.12.6-.62V4.92c0-.29-.06-.46-.17-.55-.12-.08-.31-.08-.59.02-.36.13-.73.25-1.1.39l-.64.23V.61c0-.48-.12-.61-.6-.61h-2.58c-.54 0-.64.11-.64.65V6c0 .11-.04.35-.16.39-.46.18-.93.34-1.42.51l-.54.19V4.86c0-.25-.06-.42-.18-.5-.12-.08-.3-.08-.53.01-.25.1-.5.2-.76.3l-.51.2V.61c0-.48-.12-.6-.59-.61H3.11c-.47 0-.59.13-.59.61v5.35c0 .35-.12.52-.44.63-.39.14-.78.3-1.16.45Zm4.05 5.89H3.88v-1.09h1.09v1.09Zm3.96 0H7.84v-1.09h1.09v1.09Zm3.97 0h-1.09v-1.09h1.09v1.09ZM11.3.86h2.09v1.11H11.3V.86Zm0 1.99h2.11V5.1c0 .08-.05.22-.14.25-.49.18-.98.35-1.48.53l-.49.17v-3.2ZM3.37.87h2.1v1.08h-2.1V.87Zm2.11 1.97v1.49c0 .88-.02.9-.81 1.22-.26.1-.51.2-.78.31l-.51.2V2.84h2.11Zm.23 3.2 1.49-.59s.06-.02.1-.03c.02 0 .05-.01.08-.02l.09-.02v2.21c0 .22.06.37.18.45.11.08.28.08.49.01.71-.24 1.41-.49 2.11-.74l5.26-1.85c.06-.02.12-.04.19-.06l.21-.06v7.59h-2.14V11.6c0-.52-.11-.63-.63-.63h-1.65c-.41 0-.54.14-.55.55v1.41H9.8v-1.37c0-.47-.12-.59-.6-.59H7.58c-.49 0-.6.12-.61.62v1.34H5.83v-1.44c-.01-.38-.14-.51-.51-.52H3.54c-.39 0-.53.14-.53.53v1.43H.85V8.29c0-.17.02-.32.25-.42 1.54-.61 3.08-1.22 4.61-1.83Z" style="fill:#069aff;stroke-width:0" data-name="Warstwa 1"/></svg>