<svg data-name="Warstwa 2" xmlns="http://www.w3.org/2000/svg" width="16.87" height="16.86"><g data-name="Warstwa 1"><path d="M8.44 16.86H.72c-.57 0-.72-.15-.72-.73 0-3.95.01-7.89 0-11.84 0-.4.15-.62.51-.78C3.02 2.38 5.53 1.24 8.03.09c.27-.13.5-.13.78 0 2.53 1.15 5.05 2.3 7.59 3.43.34.15.48.37.48.73v11.9c0 .53-.16.69-.68.69H8.45Zm-5.62-1.01V6.67c0-.55.14-.69.71-.69h9.76c.61 0 .75.14.75.76v9.12h1.83c0-.1.01-.17.01-.24V4.67c0-.24-.11-.32-.29-.4-2.3-1.04-4.6-2.07-6.9-3.12a.625.625 0 0 0-.55 0c-2.27 1.04-4.55 2.08-6.83 3.1-.24.11-.32.23-.32.49v11.12h1.82Zm10.2-8.87H3.83v.95c.12 0 .23.01.34.01h2.87c.59 0 .74.14.74.74v7.16H9.1v-3.31c0-.45.17-.62.62-.62h3.33V6.99Zm-9.19 4.91h2.93V8.96h-.94c-.05.39.09.94-.5.95-.65.02-.47-.57-.53-.95h-.96v2.93Zm2.93 1.03h-.95c-.06.76-.17.98-.51.96-.63-.05-.46-.58-.52-.96h-.95v2.92h2.93v-2.92Zm3.33 2.92h2.93v-2.93h-.94c-.05.4.09.94-.5.95-.65.02-.46-.58-.52-.95h-.96v2.93Z" style="fill:#069aff;stroke-width:0"/><path d="M8.45 3.33h1.38c.35 0 .58.21.57.5 0 .28-.23.48-.56.48H7.01c-.35 0-.57-.2-.56-.5 0-.29.21-.48.55-.48h1.45Z" style="fill:#069aff;stroke-width:0"/></g></svg>