<svg xmlns="http://www.w3.org/2000/svg" xmlns:xlink="http://www.w3.org/1999/xlink" width="166" height="31.637" viewBox="0 0 166 31.637">
  <defs>
    <clipPath id="clip-path">
      <rect id="Rectangle_3" data-name="Rectangle 3" width="166" height="31.637" fill="#1e274a"></rect>
    </clipPath>
  </defs>
  <g id="Group_3" data-name="Group 3" transform="translate(0 0)">
    <path id="Path_1" data-name="Path 1" d="M140.542,54.487h9.174l4.14-5.532-4.589-6.127Z" transform="translate(-76.083 -23.185)" fill="#1e274a"></path>
    <g id="Group_2" data-name="Group 2" transform="translate(0 0)">
      <g id="Group_1" data-name="Group 1" clip-path="url(#clip-path)">
        <path id="Path_2" data-name="Path 2" d="M0,.685V23.563A8.042,8.042,0,0,0,8.042,31.6H24.209V24.343H9.561a2.26,2.26,0,0,1-2.26-2.26V.685Z" transform="translate(0 -0.371)" fill="#1e274a"></path>
        <path id="Path_3" data-name="Path 3" d="M71.733,30.042a17.031,17.031,0,0,0,15.213,0A13.145,13.145,0,0,0,92,25.138a13.916,13.916,0,0,0,1.829-7.148V.861H86.695V17.715a7.783,7.783,0,0,1-.958,3.9,6.911,6.911,0,0,1-2.626,2.639,7.56,7.56,0,0,1-3.79.943,7.081,7.081,0,0,1-3.629-.948A6.834,6.834,0,0,1,73.134,21.6a7.928,7.928,0,0,1-.933-3.889V.861H64.812V17.99a13.941,13.941,0,0,0,1.829,7.148,13.1,13.1,0,0,0,5.093,4.9" transform="translate(-35.086 -0.466)" fill="#1e274a"></path>
        <path id="Path_4" data-name="Path 4" d="M309.555,8.453a7.078,7.078,0,0,1,3.629-.948,7.56,7.56,0,0,1,3.791.944,6.908,6.908,0,0,1,2.625,2.638,7.776,7.776,0,0,1,.958,3.9V31.836h7.131V14.708A13.919,13.919,0,0,0,325.86,7.56a13.143,13.143,0,0,0-5.051-4.907,17.03,17.03,0,0,0-15.213,0A13.1,13.1,0,0,0,300.5,7.56a13.952,13.952,0,0,0-1.828,7.148V31.836h7.389V14.982a7.92,7.92,0,0,1,.934-3.89,6.824,6.824,0,0,1,2.557-2.64" transform="translate(-161.689 -0.466)" fill="#1e274a"></path>
        <path id="Path_5" data-name="Path 5" d="M231.752.033A15.82,15.82,0,1,0,246.5,14.784,15.837,15.837,0,0,0,231.752.033m-.111,24.558a9.016,9.016,0,1,1,8.046-8.046,9.026,9.026,0,0,1-8.046,8.046" transform="translate(-116.336 0)" fill="#1e274a"></path>
        <path id="Path_6" data-name="Path 6" d="M149.715,1.01h-9.174l23.087,30.839H172.8Z" transform="translate(-76.083 -0.547)" fill="#1e274a"></path>
        <path id="Path_7" data-name="Path 7" d="M186.439,12.674,195.168,1.01h-9.174l-4.138,5.53Z" transform="translate(-98.448 -0.547)" fill="#1e274a"></path>
      </g>
    </g>
  </g>
</svg>