<svg width="37" height="16" fill="none" xmlns="http://www.w3.org/2000/svg"><path d="M1.786.138c-.64 0-1.16.52-1.16 1.16v13.494a1.16 1.16 0 0 0 2.32 0V1.298c0-.64-.52-1.16-1.16-1.16Zm3.36 0c-.64 0-1.16.52-1.16 1.16v13.494a1.16 1.16 0 0 0 2.32 0V1.298c0-.64-.52-1.16-1.16-1.16Zm3.36 0a.592.592 0 0 0-.586.587v14.653c0 .32.266.587.586.587.32 0 .587-.267.587-.587V.725a.592.592 0 0 0-.587-.587Zm3.374 0a.592.592 0 0 0-.587.587v14.653c0 .32.267.587.587.587.32 0 .586-.267.586-.587V.725a.592.592 0 0 0-.586-.587Zm3.36 0c-.64 0-1.16.52-1.16 1.16v13.494a1.16 1.16 0 0 0 2.32 0V1.298c0-.64-.52-1.16-1.16-1.16Zm3.373 0c-.64 0-1.16.52-1.16 1.16v13.494a1.16 1.16 0 0 0 2.32 0V1.298c0-.64-.52-1.16-1.16-1.16Zm3.36 0a.592.592 0 0 0-.586.587v14.653c0 .32.266.587.586.587.32 0 .587-.267.587-.587V.725a.592.592 0 0 0-.587-.587Zm3.373 0c-.64 0-1.16.52-1.16 1.16v13.494a1.16 1.16 0 0 0 2.32 0V1.298c0-.64-.52-1.16-1.16-1.16Zm3.36 0a.592.592 0 0 0-.586.587v14.653c0 .32.266.587.586.587.32 0 .587-.267.587-.587V.725a.592.592 0 0 0-.587-.587Zm3.36 0a.592.592 0 0 0-.586.587v14.653c0 .32.266.587.586.587.32 0 .587-.267.587-.587V.725a.592.592 0 0 0-.587-.587Zm3.374 0c-.64 0-1.16.52-1.16 1.16v13.494a1.16 1.16 0 0 0 2.32 0V1.298c0-.64-.52-1.16-1.16-1.16Z" fill="#fff"/></svg>