<svg width="12" height="10" fill="none" xmlns="http://www.w3.org/2000/svg"><path d="M2.132.458H.052v9.254h2.08V.458Zm8.8 1.44A3.043 3.043 0 0 0 9.64.778C9.08.512 8.4.392 7.612.392H4.226v9.333h2.08V7.072h1.306c.787 0 1.467-.134 2.027-.387.56-.267 1-.64 1.293-1.12.307-.48.454-1.053.454-1.72v-.2c0-.68-.147-1.253-.454-1.733v-.014Zm-1.84 2.64c-.12.227-.306.414-.533.534-.227.133-.507.186-.827.186H6.32v-3.08h1.413c.32 0 .6.067.827.187.227.12.413.307.533.533.134.227.187.507.187.827 0 .307-.067.573-.187.8v.013Z" fill="#fff"/></svg>