<svg width="31" height="31" fill="none" xmlns="http://www.w3.org/2000/svg"><g fill="#fff"><path d="M15.413 30.045h-1.68c-1 .053-1.88-.68-2-1.68a3.646 3.646 0 0 1-.067-.667v-2.453a4.16 4.16 0 0 0-1.493-3.2c-.787-.653-1.48-1.4-2.08-2.227a8.71 8.71 0 0 1-1.347-3.693A8.528 8.528 0 0 1 8.68 9.552a8.615 8.615 0 0 1 2.72-2.227c.84-.44 1.734-.76 2.667-.92a8.46 8.46 0 0 1 4.56.507 7.993 7.993 0 0 1 3.027 2.013 8.82 8.82 0 0 1 2.36 4.613 8.546 8.546 0 0 1-1.267 6.254c-.533.8-1.2 1.52-1.96 2.106a4.483 4.483 0 0 0-1.6 2.827c-.027.16-.04.32-.04.48v2.88c0 .587-.253 1.147-.707 1.507-.346.28-.76.426-1.2.426H15.4m.014-5h2.333c.133 0 .173-.04.187-.173a5.564 5.564 0 0 1 .453-1.72 6.848 6.848 0 0 1 1.92-2.48c.413-.333.787-.72 1.107-1.147a7.41 7.41 0 0 0 1.426-5.506 7.14 7.14 0 0 0-1.186-3.12 7.209 7.209 0 0 0-2.934-2.574 7.428 7.428 0 0 0-4.28-.68 6.92 6.92 0 0 0-2.68.934 7.677 7.677 0 0 0-2.88 2.96 7.355 7.355 0 0 0-.946 3.586c0 .4.04.787.106 1.174a7.004 7.004 0 0 0 2.654 4.533 6.054 6.054 0 0 1 1.586 1.853c.36.64.574 1.36.627 2.08.013.254.013.24.267.24h2.24m.013 1.32h-2.32c-.133 0-.173.04-.173.174v1.466c0 .134.013.267.053.387.04.28.293.48.573.453h3.707c.307.04.587-.16.627-.466v-1.827c0-.133-.054-.173-.174-.173h-2.293M2.293 14.405h1.186c.36-.04.68.227.707.587.04.36-.227.68-.587.706H1.266c-.107 0-.2 0-.307-.026a.622.622 0 0 1-.546-.627c-.027-.32.2-.6.52-.627.066 0 .146-.013.213-.013h1.147Zm26.187 1.293c-.374-.013-.827.04-1.294-.026a.608.608 0 0 1-.533-.507.61.61 0 0 1 .28-.653.867.867 0 0 1 .413-.107h2.36c.36-.04.68.213.72.573.04.36-.213.68-.573.72h-1.36M14.773 1.885c.013-.36-.027-.813.026-1.253 0-.334.294-.587.614-.574h.026c.334 0 .6.267.614.6v.027c.053.813.013 1.613.013 2.427.04.32-.16.626-.48.706a.627.627 0 0 1-.773-.413c0-.027-.014-.053-.014-.08a2.039 2.039 0 0 1-.026-.28v-1.16ZM5.24 4.245c.173 0 .346.08.466.213.574.574 1.147 1.147 1.707 1.734.227.2.267.533.093.773a.66.66 0 0 1-.786.333.474.474 0 0 1-.214-.146c-.6-.6-1.16-1.227-1.72-1.854a.566.566 0 0 1-.106-.68.61.61 0 0 1 .56-.373Zm20.253 21.56a.726.726 0 0 1-.56-.24c-.547-.56-1.094-1.093-1.64-1.653a.55.55 0 0 1-.134-.654.62.62 0 0 1 .574-.4.56.56 0 0 1 .36.12 2.3 2.3 0 0 1 .36.36l1.346 1.347c.054.053.107.107.16.173a.624.624 0 0 1-.066.867c-.107.093-.227.08-.4.08Zm-20.213 0c-.387 0-.574-.133-.654-.453a.538.538 0 0 1 .147-.52c.107-.12.227-.227.333-.347.454-.453.907-.907 1.36-1.347.067-.066.133-.12.213-.173a.571.571 0 0 1 .747.08c.2.187.24.493.107.733a.59.59 0 0 1-.16.2c-.547.547-1.094 1.094-1.627 1.64-.12.134-.28.2-.453.2M23.106 6.765c0-.16.053-.32.173-.44.587-.6 1.174-1.187 1.774-1.773a.576.576 0 0 1 .826-.027c.014 0 .027.027.04.04.24.213.254.573.054.813 0 .014-.027.027-.04.04-.574.587-1.134 1.16-1.734 1.72a.648.648 0 0 1-.906.027.587.587 0 0 1-.16-.24c0-.053-.027-.107-.027-.16Z"/><path d="M11.04 11.992v.853h.466v4.413h1.16v-5.266H11.04Zm8.626 2.013a1.372 1.372 0 0 0-.466-.613c-.2-.134-.454-.2-.747-.2H18.4c-.294 0-.547.066-.747.2-.2.133-.36.333-.453.613 0 .013 0 .027-.014.04 0-.013 0-.027-.013-.04a1.349 1.349 0 0 0-.453-.613c-.2-.134-.454-.2-.747-.2h-.054a1.35 1.35 0 0 0-.746.2c-.213.133-.347.333-.454.613-.04.093-.066.2-.08.32v-1.013h-.92v3.946h1.147v-2.293c0-.227.053-.413.174-.547.12-.133.28-.2.493-.2.213 0 .36.067.466.2a.813.813 0 0 1 .174.52v2.307h1.16v-2.293c0-.227.053-.414.187-.547.12-.133.28-.2.493-.2.213 0 .36.067.48.2a.813.813 0 0 1 .173.52v2.307h1.147v-2.24c0-.4-.053-.734-.16-1.014l.013.027Z"/></g></svg>