<svg width="22" height="23" fill="none" xmlns="http://www.w3.org/2000/svg"><path d="M21.01 11.485v5.894c0 .453-.173.72-.586.893-3.013 1.227-6.026 2.48-9.053 3.693-.254.107-.614.094-.867 0-3.013-1.213-6.013-2.453-9.013-3.68-.427-.173-.614-.44-.614-.906V5.592c0-.467.174-.733.6-.92 3.014-1.227 6.027-2.48 9.054-3.693.24-.094.586-.094.826 0 3.027 1.213 6.027 2.466 9.054 3.693.413.173.6.427.586.88-.013 1.973 0 3.96 0 5.933h.014ZM19.678 6.46c-.12.04-.213.053-.306.093-2.493 1.027-4.974 2.053-7.467 3.053-.267.107-.28.28-.28.507v9.907c0 .12 0 .24.013.373a.413.413 0 0 0 .147-.027c2.56-1.053 5.107-2.093 7.653-3.146.107-.04.227-.24.227-.36V6.46h.013ZM2.264 6.432c0 .12-.027.187-.027.253v10.12c0 .294.134.374.36.467 1.96.8 3.907 1.6 5.867 2.4.6.24 1.2.493 1.8.733a.52.52 0 0 1 .04-.146V9.965c0-.12-.133-.293-.253-.346-.827-.36-1.654-.694-2.48-1.04-.32-.134-.627-.254-.987-.4v2.72c0 .533-.267.866-.693.853-.4 0-.64-.32-.64-.853V7.952c0-.133-.08-.347-.187-.387-.893-.386-1.8-.76-2.773-1.146l-.027.013Zm5.24.707c1.12.453 2.133.893 3.16 1.28a.966.966 0 0 0 .614 0c2.32-.934 4.626-1.894 6.933-2.84.12-.054.24-.107.426-.2a383.9 383.9 0 0 0-3.506-1.44c-.094-.04-.254-.014-.347.026-2.387 1.04-4.773 2.08-7.267 3.16l-.013.014Zm5.76-3.96c-.72-.307-1.333-.574-1.973-.8-.2-.067-.467-.08-.654 0-2.32.933-4.626 1.893-6.933 2.84-.12.053-.227.106-.4.186.84.347 1.6.667 2.373.974.094.04.227 0 .307-.027 2.387-1.04 4.787-2.08 7.28-3.173Z" fill="#fff"/></svg>