<svg width="21" height="16" fill="none" xmlns="http://www.w3.org/2000/svg"><path d="M20.81 1.205c0-.626-.12-.746-.76-.746H.864c-.667 0-.787.12-.787.773v13.8c0 .293.227.52.52.52H20.13a.66.66 0 0 0 .667-.667V1.205h.013Zm-19.76.227h18.774v1.827H1.05V1.432Zm18.774 2.827v1.826h-1.827V4.26h1.827Zm-2.827 0v1.826h-4.653V4.26h4.653Zm-5.627-.027v1.853H9.504v-1.68c0-.053.133-.16.213-.16.533-.013 1.067 0 1.653 0v-.013Zm-2.826.027v1.826H3.89V4.26h4.654Zm-5.654 0v1.826H1.064V4.26H2.89Zm16.934 10.293H1.064v-1.84h18.76v1.84Zm-18.76-2.813v-1.84H2.89v1.84H1.064Zm2.813 0V9.912H8.53v1.827H3.877Zm5.48 0v-1.84h2.08v1.84h-2.08Zm2.987.026V9.9h4.68v1.68c0 .066-.134.173-.2.173h-4.467l-.013.013Zm7.48-.026h-1.827v-1.84h1.827v1.84Zm.026-3.734v.907H1.05V7.085h18.8v.92Z" fill="#fff"/></svg>