<svg width="27" height="21" fill="none" xmlns="http://www.w3.org/2000/svg"><path d="M1.477 15.552H21.01a.66.66 0 0 0 .667-.667V1.205c0-.626-.12-.746-.76-.746H1.731c-.667 0-.787.12-.787.773v13.8c0 .293.227.52.52.52h.013Zm19.227-.987H1.944v-1.84h18.76v1.84ZM1.944 11.74V9.9H3.77v1.84H1.944Zm2.813 0V9.912h4.654v1.827H4.757Zm5.48 0V9.9h2.08v1.84h-2.08Zm2.987.026V9.9h4.68v1.68c0 .066-.133.173-.2.173h-4.467l-.013.013Zm7.48-.026h-1.827V9.9h1.827v1.84Zm.027-3.734v.907H1.93V7.085h18.8v.92ZM1.944 6.085V4.26H3.77v1.826H1.944Zm2.813 0V4.26h4.654v1.826H4.757Zm5.627-1.68s.133-.16.213-.16c.534-.013 1.067 0 1.654 0V6.1h-1.867V4.405Zm2.84 1.68V4.26h4.653v1.826h-4.653Zm7.48 0h-1.827V4.26h1.827v1.826ZM1.93 1.445h18.774v1.827H1.93V1.445Zm19.04 15.587a.555.555 0 0 0-.8 0c-.213.227-.226.587 0 .8l.08.08H2.797l.08-.08a.556.556 0 0 0 0-.8c-.226-.213-.586-.227-.8 0l-1.053 1.053a.556.556 0 0 0 0 .8l1.04 1.04c.107.107.253.16.4.16a.565.565 0 0 0 .4-.16.556.556 0 0 0 0-.8l-.08-.08h17.48l-.08.08a.555.555 0 0 0 0 .8c.107.107.253.16.4.16a.564.564 0 0 0 .4-.16l1.04-1.04a.556.556 0 0 0 0-.8l-1.053-1.053Zm4.6-3.2-.08.08V2.299l.08.08a.57.57 0 0 0 .4.16.565.565 0 0 0 .4-.16.555.555 0 0 0 0-.8L25.317.525a.58.58 0 0 0-.8 0l-1.04 1.04a.556.556 0 0 0 0 .8c.227.214.587.227.8 0l.08-.08v11.64l-.08-.08a.556.556 0 0 0-.8 0c-.213.227-.227.587 0 .8l1.04 1.04c.107.107.253.16.4.16a.564.564 0 0 0 .4-.16l1.053-1.053a.555.555 0 0 0 0-.8c-.226-.213-.586-.227-.8 0Z" fill="#fff"/></svg>