<svg width="16" height="10" fill="none" xmlns="http://www.w3.org/2000/svg"><path d="M7.333 5.312c.306-.454.466-1.027.466-1.707v-.2c0-.693-.146-1.267-.453-1.72-.307-.453-.747-.8-1.307-1.04-.56-.24-1.24-.347-2-.347H.4v9.334h2.08V6.658H4l2.027 2.974H8.44l-2.36-3.32c.547-.227.973-.56 1.28-1h-.026ZM2.466 2.058h1.72c.307 0 .573.067.787.187.226.12.4.293.52.52.12.227.186.48.186.787 0 .306-.067.56-.187.786-.12.227-.293.4-.52.52-.226.12-.493.187-.786.187h-1.72V2.058ZM14.96 3.792c-.254-.414-.627-.72-1.107-.92-.48-.2-1.08-.307-1.8-.307h-.787c-.28 0-.547.027-.813.04-.267.013-.494.04-.68.053v1.707c.266-.013.56-.027.88-.053l.933-.04h.733c.374 0 .64.093.814.266.173.174.253.44.253.8v.027h-1.253c-.614 0-1.16.08-1.64.24-.48.16-.84.4-1.107.72-.267.32-.387.747-.387 1.253 0 .467.107.867.32 1.2.214.334.507.587.88.774.374.173.814.266 1.307.266s.893-.093 1.227-.266c.333-.174.6-.427.786-.76.08-.147.16-.32.214-.507v1.347h1.613V5.365c0-.64-.133-1.173-.387-1.573Zm-2.227 4.493c-.187.08-.387.12-.614.12-.36 0-.626-.08-.813-.253a.885.885 0 0 1-.28-.68c0-.294.093-.534.28-.707.187-.173.467-.253.813-.253h1.267v.56c-.013.346-.08.613-.2.813a.963.963 0 0 1-.453.413v-.013Z" fill="#fff"/></svg>