<svg width="19" height="25" fill="none" xmlns="http://www.w3.org/2000/svg"><g fill="#fff"><path d="M9.72 24.045H8.04c-1 .053-1.88-.68-2-1.68a3.645 3.645 0 0 1-.067-.667v-2.453c0-1.24-.547-2.413-1.494-3.2a12.2 12.2 0 0 1-2.08-2.227 8.709 8.709 0 0 1-1.346-3.693 8.528 8.528 0 0 1 1.933-6.573 8.616 8.616 0 0 1 2.72-2.227c.84-.44 1.733-.76 2.667-.92a8.46 8.46 0 0 1 4.56.507 7.993 7.993 0 0 1 3.026 2.013 8.82 8.82 0 0 1 2.36 4.613 8.546 8.546 0 0 1-1.266 6.254c-.534.8-1.2 1.52-1.96 2.106a4.483 4.483 0 0 0-1.6 2.827c-.027.16-.04.32-.04.48v2.88c0 .587-.254 1.147-.707 1.507-.347.28-.76.426-1.2.426h-1.84m.013-5h2.334c.133 0 .173-.04.186-.173a5.566 5.566 0 0 1 .454-1.72 6.848 6.848 0 0 1 1.92-2.48c.413-.333.786-.72 1.106-1.147a7.41 7.41 0 0 0 1.427-5.506 7.14 7.14 0 0 0-1.187-3.12 7.209 7.209 0 0 0-2.933-2.574 7.428 7.428 0 0 0-4.28-.68c-.947.12-1.853.44-2.68.934a7.677 7.677 0 0 0-2.88 2.96 7.355 7.355 0 0 0-.947 3.586c0 .4.04.787.107 1.174a7.004 7.004 0 0 0 2.653 4.533 6.053 6.053 0 0 1 1.587 1.853c.36.64.573 1.36.627 2.08.013.254.013.24.266.24h2.24m.014 1.32h-2.32c-.134 0-.174.04-.174.174v1.466c0 .134.014.267.054.387.04.28.293.48.573.453h3.707c.306.04.586-.16.626-.466v-1.827c0-.133-.053-.173-.173-.173H9.733"/><path d="M9.08 17.792c.013-.374-.04-3.734.026-4.187a.608.608 0 0 1 .507-.533.61.61 0 0 1 .653.28.86.86 0 0 1 .107.413v5.253c.04.36-.214.68-.574.72a.647.647 0 0 1-.72-.573v-1.36m1.601-9.293 2.2-2.8h-1.667L8.826 8.738V5.712H7.373v6.466h1.453V9.152h.573l2.227 3.026h1.76l-2.707-3.666Z"/></g></svg>