<svg width="23" height="22" fill="none" xmlns="http://www.w3.org/2000/svg"><g fill="#fff"><path d="M8.905 5.712c-.893-1.88-.68-3.36.574-4.414a3.224 3.224 0 0 1 3.946-.146c1.387 1 1.64 2.373.787 4.56h2.88c1.52 0 2.44.733 2.8 2.213.84 3.387 1.68 6.787 2.533 10.173.494 1.974-.666 3.467-2.707 3.467H3.185C1.4 21.565.2 20.045.6 18.312c.186-.814.4-1.614.6-2.414.68-2.706 1.36-5.413 2.053-8.12.333-1.293 1.293-2.04 2.627-2.053h3.013l.013-.013Zm2.64 14.546h8.173c1.187 0 1.747-.693 1.467-1.84-.853-3.44-1.706-6.866-2.573-10.293-.187-.76-.64-1.12-1.413-1.12H5.919c-.774 0-1.24.36-1.427 1.107a2909.84 2909.84 0 0 0-2.587 10.293c-.28 1.147.267 1.853 1.454 1.853h8.186Zm0-14.546c1.08 0 1.934-.867 1.934-1.934 0-1.053-.854-1.92-1.907-1.933a1.955 1.955 0 0 0-1.96 1.92c0 1.08.853 1.947 1.92 1.947h.013Z"/><path d="M15.385 14.272c-.266 0-.506.013-.733 0-.387-.04-.613-.294-.613-.64 0-.347.24-.614.626-.627.494-.027.974-.027 1.467 0 .44.013.653.28.667.733.026 1.64-1.12 2.947-2.627 3-1.667.054-3.12-1.213-3.227-2.826-.08-1.254.4-2.254 1.467-2.907 1.04-.64 2.12-.627 3.187-.04.426.24.56.613.346.96-.2.333-.546.4-.973.173-.093-.04-.173-.093-.267-.133-.706-.267-1.36-.16-1.906.36-.56.533-.707 1.2-.454 1.933.227.68.894 1.147 1.6 1.174.734.04 1.24-.36 1.44-1.16Zm-7.786.653v1.093c0 .44-.267.72-.627.72-.373 0-.653-.28-.653-.693v-4.813c0-.427.293-.707.666-.694.36 0 .614.28.627.68v.974a128 128 0 0 0 1.147-1.054c.133-.12.266-.266.413-.373.293-.227.667-.213.893.027.254.266.254.64-.04.92-.466.453-.973.893-1.453 1.346-.16.147-.307.294-.453.427.4.427.786.84 1.186 1.253.267.28.56.534.84.814.334.333.374.693.094.986-.267.28-.64.267-.987-.053-.427-.4-.853-.813-1.267-1.227-.093-.093-.2-.186-.373-.346l-.013.013Z"/></g></svg>