<svg xmlns="http://www.w3.org/2000/svg" width="25" height="23" fill="none"><path d="M17.319 9.912h5.747c0 .093.013.173.013.24v2.827c0 .226-.08.266-.28.266h-5.44c.013.107.027.174.04.254.733 3.026 3.427 5.386 6.533 5.72.2.026.414.053.614.04.2 0 .253.08.24.266v2.734c0 .2-.067.253-.254.24-1.16-.04-2.293-.214-3.373-.64-4.04-1.587-6.493-4.507-7.12-8.8-.507-3.427.507-6.467 2.88-8.987C18.972 1.885 21.532.779 24.532.659h.24c0 .093.014.16.014.226V3.62c0 .226-.08.266-.28.28-3.28.24-5.547 1.893-6.84 4.893-.147.347-.227.72-.36 1.12h.013ZM10.826.979s.026.106.026.16v2.853c0 .173-.08.2-.226.213-2.334.107-4.254 1.054-5.72 2.867-1.454 1.8-1.974 3.867-1.587 6.147.507 3.04 2.84 5.493 5.84 6.173.467.107.96.147 1.454.187.186.013.253.08.253.266v2.734c0 .2-.067.253-.253.253-4.48-.08-8.627-3.133-10.04-7.4-1.427-4.293-.187-8.84 3.226-11.8 1.947-1.693 4.24-2.56 6.827-2.64h.226l-.026-.013Z" fill="#151C33"/></svg>