<svg width="9" height="8" viewBox="0 0 9 8" fill="none" xmlns="http://www.w3.org/2000/svg">
<path id="download-solid" d="M5.04272 1.035C5.04272 0.9138 4.99464 0.797557 4.90894 0.711853C4.82323 0.626149 4.7069 0.578003 4.58569 0.578003C4.46449 0.578003 4.3484 0.626149 4.2627 0.711853C4.17699 0.797557 4.12866 0.9138 4.12866 1.035V4.5L3.07983 3.452C3.03722 3.40951 2.98654 3.37585 2.93091 3.35291C2.87528 3.32996 2.81579 3.31821 2.75562 3.3183C2.69544 3.31839 2.63588 3.33034 2.58032 3.35345C2.52477 3.37657 2.47437 3.41039 2.43188 3.453C2.3894 3.49562 2.3557 3.54618 2.33276 3.60181C2.30982 3.65743 2.298 3.71705 2.2981 3.77722C2.29819 3.83739 2.31014 3.89696 2.33325 3.95251C2.35636 4.00807 2.39025 4.05853 2.43286 4.10101L4.26172 5.92999C4.34771 6.01542 4.46399 6.06339 4.58521 6.06339C4.70642 6.06339 4.8227 6.01542 4.90869 5.92999L6.73682 4.10101C6.7793 4.05853 6.81295 4.00808 6.83594 3.95258C6.85893 3.89707 6.87085 3.83758 6.87085 3.7775C6.87085 3.71742 6.85893 3.65792 6.83594 3.60242C6.81295 3.54691 6.7793 3.49649 6.73682 3.45401C6.69433 3.41153 6.64389 3.37782 6.58838 3.35483C6.53287 3.33184 6.47341 3.32001 6.41333 3.32001C6.35325 3.32001 6.29379 3.33184 6.23828 3.35483C6.18278 3.37782 6.13233 3.41153 6.08984 3.45401L5.04272 4.5V1.035ZM1.84277 5.60599C1.60027 5.60625 1.36791 5.70279 1.19653 5.87436C1.02515 6.04593 0.928711 6.2785 0.928711 6.521V6.978C0.928711 7.2204 1.02512 7.45289 1.19653 7.6243C1.36794 7.79571 1.60037 7.892 1.84277 7.892H7.32886C7.57136 7.892 7.80377 7.79574 7.97534 7.62436C8.14691 7.45298 8.24339 7.2205 8.24365 6.978V6.521C8.24312 6.27849 8.14658 6.04605 7.9751 5.87457C7.80362 5.70309 7.57137 5.60652 7.32886 5.60599H5.87866L5.23169 6.25299C5.06013 6.42428 4.82763 6.52051 4.58521 6.52051C4.34278 6.52051 4.11028 6.42428 3.93872 6.25299L3.29272 5.60599H1.84277ZM7.09985 6.40601C7.16773 6.40581 7.23399 6.42575 7.29053 6.46332C7.34706 6.50089 7.39137 6.55438 7.41748 6.61703C7.44359 6.67969 7.45038 6.74871 7.43726 6.81531C7.42413 6.88191 7.39168 6.94311 7.34375 6.99118C7.29582 7.03925 7.23453 7.07201 7.16797 7.08533C7.10141 7.09864 7.03246 7.09191 6.96973 7.06598C6.90699 7.04005 6.85341 6.99609 6.81567 6.93967C6.77794 6.88324 6.75781 6.81687 6.75781 6.74899C6.75781 6.6582 6.7938 6.5711 6.85791 6.50681C6.92202 6.44251 7.00906 6.40627 7.09985 6.40601Z" fill="#069AFF"/>
</svg>
