<svg width="21" height="19" viewBox="0 0 21 19" fill="none" xmlns="http://www.w3.org/2000/svg">
<g id="Group 48">
<path id="Path 68" d="M8.29985 4.76898C7.50585 3.08798 7.68785 1.76897 8.81285 0.83597C9.30186 0.425948 9.91364 0.190727 10.5514 0.167544C11.1891 0.14436 11.8164 0.334546 12.3338 0.707979C13.5738 1.59398 13.7909 2.82798 13.0339 4.76898C13.8989 4.76898 14.7518 4.76898 15.6048 4.76898C16.1927 4.72091 16.777 4.89679 17.2407 5.26138C17.7043 5.62598 18.013 6.15234 18.1048 6.73496C18.8548 9.75829 19.6069 12.7806 20.3609 15.802C20.4899 16.1702 20.5242 16.5649 20.4607 16.9499C20.3972 17.3348 20.2379 17.6976 19.9975 18.0049C19.7572 18.3122 19.4433 18.5541 19.085 18.7084C18.7267 18.8627 18.3353 18.9245 17.9469 18.888C13.0382 18.888 8.12886 18.888 3.21886 18.888C2.85899 18.9005 2.5012 18.8283 2.1743 18.6773C1.84741 18.5263 1.56053 18.3007 1.33678 18.0186C1.11302 17.7364 0.958688 17.4057 0.886096 17.053C0.813505 16.7003 0.824719 16.3355 0.918872 15.988C1.08487 15.267 1.27584 14.551 1.45684 13.833C2.0655 11.4196 2.67521 9.00663 3.28588 6.59397C3.39629 6.06214 3.69188 5.58678 4.12004 5.25257C4.54821 4.91835 5.08117 4.74698 5.62389 4.76898C6.49989 4.76498 7.38185 4.76898 8.29985 4.76898ZM10.6518 17.735H17.9389C18.9969 17.735 19.4959 17.114 19.2389 16.097C18.4802 13.037 17.7172 9.97799 16.9499 6.91998C16.9094 6.62315 16.7558 6.35342 16.5212 6.16709C16.2866 5.98076 15.9891 5.89223 15.6908 5.91998C12.3422 5.91998 8.99287 5.91998 5.64287 5.91998C5.34524 5.8943 5.04894 5.98237 4.81365 6.16644C4.57836 6.35052 4.42157 6.6169 4.37487 6.91196C3.6042 9.96863 2.83519 13.026 2.06786 16.084C1.98306 16.2808 1.95292 16.4969 1.98058 16.7094C2.00823 16.9219 2.09268 17.123 2.22502 17.2916C2.35737 17.4602 2.5327 17.59 2.73259 17.6673C2.93248 17.7446 3.14955 17.7666 3.36089 17.731L10.6518 17.735ZM10.6518 4.76697C10.9927 4.76854 11.3264 4.66904 11.6107 4.48105C11.895 4.29306 12.1172 4.02502 12.2493 3.71079C12.3813 3.39655 12.4172 3.05025 12.3525 2.71561C12.2877 2.38097 12.1252 2.073 11.8855 1.83066C11.6459 1.58832 11.3398 1.42248 11.0058 1.35407C10.6719 1.28566 10.3252 1.31776 10.0096 1.44632C9.6939 1.57488 9.4234 1.79413 9.23229 2.07636C9.04118 2.35859 8.93802 2.69115 8.93584 3.03198C8.93305 3.25934 8.97558 3.48496 9.06084 3.69574C9.1461 3.90652 9.27241 4.0982 9.43248 4.25968C9.59256 4.42115 9.78318 4.54917 9.99321 4.63626C10.2032 4.72335 10.4285 4.76778 10.6559 4.76697H10.6518Z" fill="#069AFF"/>
<path id="Path 69" d="M14.0799 12.3999C13.8359 12.3999 13.6319 12.4149 13.4309 12.3999C13.2803 12.3984 13.1364 12.337 13.031 12.2294C12.9256 12.1217 12.8673 11.9766 12.8689 11.8259C12.8705 11.6753 12.9318 11.5315 13.0395 11.4261C13.1471 11.3207 13.2922 11.2624 13.4429 11.264C13.8769 11.244 14.3128 11.244 14.7428 11.264C14.8267 11.2612 14.9101 11.2767 14.9873 11.3095C15.0645 11.3422 15.1337 11.3913 15.19 11.4534C15.2463 11.5155 15.2885 11.5892 15.3135 11.6692C15.3385 11.7493 15.3458 11.8338 15.3349 11.9169C15.3785 12.5828 15.1562 13.2389 14.7168 13.7411C14.2774 14.2433 13.6567 14.5508 12.9909 14.596C12.2805 14.6255 11.586 14.3806 11.0513 13.912C10.5166 13.4434 10.1827 12.7871 10.1189 12.079C10.0759 11.5742 10.1722 11.0674 10.3976 10.6137C10.6229 10.16 10.9685 9.77684 11.3967 9.50612C11.8248 9.23539 12.3191 9.08747 12.8256 9.07844C13.3321 9.06942 13.8313 9.19964 14.2688 9.45494C14.6549 9.67094 14.7689 10.0039 14.5829 10.3129C14.3969 10.6219 14.0939 10.664 13.7159 10.466C13.6383 10.4215 13.5582 10.3818 13.4759 10.3469C13.1874 10.2314 12.8717 10.2018 12.5668 10.2617C12.2619 10.3216 11.9808 10.4685 11.7576 10.6846C11.5343 10.9007 11.3783 11.1768 11.3084 11.4796C11.2385 11.7823 11.2578 12.0989 11.3639 12.3909C11.4718 12.6874 11.6649 12.9453 11.919 13.1323C12.1731 13.3193 12.4767 13.427 12.7919 13.4419C13.0993 13.4671 13.4047 13.3729 13.6445 13.1789C13.8844 12.9848 14.0403 12.7059 14.0799 12.3999Z" fill="#069AFF"/>
<path id="Path 70" d="M7.13184 12.972C7.13184 13.358 7.13784 13.652 7.13184 13.945C7.13967 14.0247 7.13115 14.105 7.10682 14.1813C7.08248 14.2575 7.04282 14.328 6.9903 14.3884C6.93778 14.4488 6.87347 14.4978 6.80134 14.5325C6.72921 14.5671 6.65077 14.5867 6.57081 14.59C6.49049 14.5916 6.41074 14.5764 6.33662 14.5455C6.26249 14.5145 6.19559 14.4684 6.14027 14.4102C6.08494 14.3519 6.04238 14.2828 6.01527 14.2072C5.98815 14.1316 5.97708 14.0511 5.98279 13.971C5.97546 12.541 5.97546 11.111 5.98279 9.68101C5.97785 9.6028 5.98894 9.52442 6.01539 9.45066C6.04183 9.3769 6.0831 9.30933 6.1366 9.25208C6.19011 9.19483 6.25474 9.14913 6.32654 9.11777C6.39835 9.08641 6.47579 9.07005 6.55415 9.06971C6.6325 9.06937 6.71016 9.08506 6.78223 9.11579C6.85431 9.14652 6.91933 9.19164 6.97333 9.24842C7.02734 9.3052 7.06917 9.37243 7.09626 9.44596C7.12334 9.51949 7.13507 9.59776 7.13081 9.676C7.14081 9.931 7.13081 10.185 7.13081 10.545L8.15583 9.60599C8.27883 9.49299 8.39385 9.373 8.52485 9.271C8.63648 9.17234 8.78172 9.12034 8.93061 9.12574C9.0795 9.13113 9.22064 9.19351 9.32484 9.29999C9.37978 9.35445 9.42281 9.41974 9.45118 9.4917C9.47955 9.56367 9.49264 9.64076 9.48963 9.71805C9.48662 9.79535 9.46754 9.87117 9.43366 9.94071C9.39978 10.0103 9.35186 10.072 9.29285 10.122C8.87185 10.531 8.43182 10.922 7.99982 11.322C7.85982 11.451 7.7208 11.582 7.5998 11.7C7.9588 12.08 8.29981 12.452 8.65681 12.814C8.89781 13.061 9.15682 13.29 9.40082 13.534C9.46962 13.5818 9.52726 13.644 9.56983 13.7161C9.6124 13.7883 9.63888 13.8688 9.64747 13.9522C9.65606 14.0355 9.64659 14.1197 9.61964 14.1991C9.59268 14.2784 9.54893 14.351 9.49134 14.4118C9.43375 14.4727 9.36368 14.5204 9.28596 14.5517C9.20823 14.583 9.12466 14.5971 9.04096 14.5932C8.95727 14.5892 8.87544 14.5672 8.80103 14.5287C8.72662 14.4902 8.66137 14.436 8.60981 14.37C8.22781 14.013 7.85481 13.645 7.47681 13.283C7.38081 13.193 7.28784 13.113 7.13184 12.972Z" fill="#069AFF"/>
</g>
</svg>
