<svg width="21" height="12" viewBox="0 0 21 12" fill="none" xmlns="http://www.w3.org/2000/svg">
<path id="Path 78" d="M19.8999 10.124L10.8259 1.04996C10.6983 0.923184 10.5258 0.852051 10.3459 0.852051C10.1661 0.852051 9.99352 0.923184 9.86594 1.04996L0.791931 10.124C0.664495 10.2513 0.592867 10.424 0.592774 10.6041C0.59268 10.7843 0.664139 10.957 0.791443 11.0845C0.918747 11.2119 1.09145 11.2835 1.27158 11.2836C1.4517 11.2837 1.62452 11.2123 1.75195 11.085L7.05795 5.77798C7.96021 6.59041 9.13131 7.03995 10.3454 7.03995C11.5596 7.03995 12.7307 6.59041 13.6329 5.77798L18.9389 11.085C19.0011 11.152 19.0762 11.2057 19.1597 11.2431C19.2431 11.2804 19.3333 11.3005 19.4247 11.3022C19.5161 11.3039 19.6069 11.2872 19.6917 11.253C19.7765 11.2188 19.8535 11.1678 19.9182 11.1032C19.9828 11.0385 20.0338 10.9615 20.068 10.8767C20.1022 10.7919 20.1189 10.7011 20.1172 10.6097C20.1155 10.5183 20.0954 10.4282 20.058 10.3447C20.0207 10.2612 19.9669 10.1862 19.8999 10.124ZM8.01895 4.81796L10.3459 2.49097L12.6729 4.81796C12.0214 5.36556 11.1975 5.66577 10.3464 5.66577C9.49533 5.66577 8.67051 5.36556 8.01895 4.81796Z" fill="#069AFF"/>
</svg>
