<svg width="30" height="10" viewBox="0 0 30 10" fill="none" xmlns="http://www.w3.org/2000/svg">
<path d="M0.946 9V0.97H2.475V9H0.946ZM0.198 2.114V0.97H2.475V2.114H0.198ZM4.22056 9V3.027H5.43056V5.59H5.32056C5.32056 4.98867 5.39756 4.48633 5.55156 4.083C5.70556 3.67233 5.9329 3.36433 6.23356 3.159C6.54156 2.94633 6.9229 2.84 7.37756 2.84H7.44356C7.90556 2.84 8.2869 2.94633 8.58756 3.159C8.89556 3.36433 9.1229 3.67233 9.26956 4.083C9.42356 4.48633 9.50056 4.98867 9.50056 5.59H9.11556C9.11556 4.98867 9.19256 4.48633 9.34656 4.083C9.5079 3.67233 9.7389 3.36433 10.0396 3.159C10.3476 2.94633 10.7289 2.84 11.1836 2.84H11.2496C11.7116 2.84 12.0966 2.94633 12.4046 3.159C12.7126 3.36433 12.9436 3.67233 13.0976 4.083C13.2589 4.48633 13.3396 4.98867 13.3396 5.59V9H11.8106V5.447C11.8106 5.073 11.7152 4.776 11.5246 4.556C11.3339 4.32867 11.0626 4.215 10.7106 4.215C10.3586 4.215 10.0762 4.33233 9.86356 4.567C9.6509 4.79433 9.54456 5.10233 9.54456 5.491V9H8.01556V5.447C8.01556 5.073 7.92023 4.776 7.72956 4.556C7.5389 4.32867 7.26756 4.215 6.91556 4.215C6.56356 4.215 6.28123 4.33233 6.06856 4.567C5.8559 4.79433 5.74956 5.10233 5.74956 5.491V9H4.22056ZM14.3355 9.66L16.6015 0.42H18.1305L15.8645 9.66H14.3355ZM20.6577 9L18.6117 0.97H20.2287L21.8897 7.955L21.4607 7.702H22.5607L22.0767 7.955L23.3857 1.278H24.7277L23.0997 9H20.6577ZM25.4537 9L23.6827 1.278H25.0797L26.5867 7.955L26.1137 7.702H27.1917L26.7737 7.955L28.2367 0.97H29.7657L27.9397 9H25.4537Z" fill="#069AFF"/>
</svg>
