<svg width="14" height="9" viewBox="0 0 14 9" fill="none" xmlns="http://www.w3.org/2000/svg">
<g id="Group 47">
<path id="Path 66" d="M6.591 4.91195C6.86435 4.48387 7.00041 3.98252 6.98099 3.47497V3.29995C7.00064 2.78786 6.86693 2.28159 6.59698 1.84597C6.32709 1.45108 5.94346 1.14765 5.49701 0.97598C4.95891 0.766987 4.38517 0.665062 3.80801 0.675961H0.73999V8.54196H2.49301V6.04196H3.76999L5.47 8.54196H7.50101L5.50699 5.74795C5.94382 5.584 6.32144 5.29279 6.591 4.91195ZM2.491 2.17096H3.944C4.17618 2.16542 4.40598 2.21874 4.612 2.32596C4.79742 2.42634 4.9496 2.57855 5.04999 2.76397C5.15193 2.96816 5.20502 3.19326 5.20502 3.42148C5.20502 3.64969 5.15193 3.87479 5.04999 4.07898C4.94989 4.26461 4.79763 4.41686 4.612 4.51696C4.40598 4.62418 4.17618 4.6775 3.944 4.67196H2.491V2.17096Z" fill="#069AFF"/>
<path id="Path 67" d="M13.0191 3.63001C12.7984 3.27831 12.4706 3.00669 12.0841 2.85501C11.6018 2.67132 11.088 2.58433 10.5721 2.599C10.3647 2.599 10.1438 2.60235 9.90909 2.60901C9.67442 2.61568 9.44643 2.62633 9.2251 2.641C9.0041 2.656 8.8121 2.66999 8.6481 2.68399V4.12702C8.8691 4.11302 9.11408 4.09902 9.38608 4.08402C9.65808 4.06902 9.92009 4.05901 10.1771 4.05201C10.4341 4.04501 10.6391 4.042 10.7961 4.042C10.9193 4.03062 11.0436 4.04464 11.1613 4.08316C11.2789 4.12169 11.3874 4.18391 11.4801 4.266C11.6362 4.45399 11.7129 4.69538 11.6941 4.939V4.96H10.6361C10.1687 4.95333 9.70328 5.02085 9.25708 5.16001C8.8945 5.26774 8.5715 5.4795 8.32809 5.76902C8.09957 6.07039 7.98354 6.44215 8.00009 6.82001C7.99015 7.17534 8.08285 7.52599 8.26709 7.82999C8.44661 8.11305 8.70484 8.33758 9.0101 8.47602C9.35745 8.63233 9.73527 8.70917 10.1161 8.70099C10.473 8.71209 10.8272 8.63483 11.1471 8.47602C11.4249 8.33071 11.6551 8.10853 11.8101 7.836C11.8842 7.70181 11.9435 7.55998 11.9871 7.413V8.551H13.3441V4.96C13.3622 4.495 13.2496 4.03426 13.0191 3.63001ZM11.1431 7.413C10.9794 7.48251 10.8029 7.5166 10.6251 7.513C10.376 7.52967 10.1298 7.45144 9.93609 7.29401C9.85703 7.22176 9.79461 7.13316 9.75317 7.0344C9.71173 6.93563 9.69227 6.82903 9.6961 6.72199C9.69074 6.61166 9.70941 6.50151 9.75085 6.39911C9.79229 6.29672 9.8555 6.20454 9.93609 6.129C10.1298 5.97158 10.376 5.89334 10.6251 5.91001H11.6941V6.38001C11.6942 6.6186 11.6354 6.85351 11.5231 7.064C11.4364 7.21749 11.3034 7.33964 11.1431 7.413Z" fill="#069AFF"/>
</g>
</svg>
