<svg width="26" height="25" viewBox="0 0 26 25" fill="none" xmlns="http://www.w3.org/2000/svg">
<g id="Group 8264">
<path id="Path 6048" d="M13.1182 24.931C12.6562 24.931 12.1932 24.921 11.7312 24.931C11.3325 24.9526 10.9404 24.8223 10.6339 24.5665C10.3274 24.3106 10.1292 23.9481 10.0792 23.552C10.0421 23.3707 10.0243 23.186 10.0262 23.001C10.0262 22.326 10.0262 21.651 10.0262 20.976C10.0278 20.4734 9.91811 19.9767 9.70511 19.5215C9.49211 19.0663 9.18105 18.6638 8.79421 18.3429C8.14671 17.8075 7.57244 17.1892 7.0862 16.504C6.48806 15.5886 6.10765 14.5483 5.9742 13.463C5.85141 12.4991 5.93023 11.5202 6.20566 10.5884C6.48109 9.65659 6.94712 8.79217 7.5742 8.04995C8.18871 7.29179 8.95208 6.66763 9.8172 6.21596C10.5056 5.84838 11.2483 5.59315 12.0172 5.45995C13.2851 5.25113 14.5861 5.39575 15.7772 5.87795C16.7262 6.23444 17.5812 6.8029 18.2772 7.53997C19.2906 8.58361 19.9675 9.90737 20.2202 11.34C20.5531 13.1272 20.1803 14.9739 19.1802 16.492C18.7363 17.1539 18.1906 17.7415 17.5632 18.233C16.849 18.818 16.3804 19.6499 16.2502 20.564C16.2303 20.6964 16.2206 20.8301 16.2212 20.9639C16.2212 21.7549 16.2212 22.547 16.2212 23.338C16.2262 23.5766 16.1758 23.8131 16.074 24.029C15.9721 24.2448 15.8216 24.4341 15.6342 24.582C15.3537 24.8101 15.0028 24.9341 14.6412 24.933C14.1352 24.933 13.6282 24.933 13.1222 24.933M13.1222 20.795H15.0392C15.1452 20.795 15.1852 20.76 15.1962 20.65C15.2455 20.1624 15.3721 19.6858 15.5712 19.238C15.9311 18.4438 16.4735 17.7458 17.1542 17.2009C17.4932 16.9228 17.7989 16.6064 18.0652 16.258C18.5504 15.6169 18.9038 14.8861 19.105 14.1077C19.3061 13.3293 19.3511 12.5188 19.2372 11.723C19.1171 10.8026 18.7832 9.92311 18.2622 9.15496C17.6649 8.24088 16.8301 7.50664 15.8472 7.03097C14.7519 6.49792 13.5224 6.30397 12.3162 6.47396C11.5374 6.5742 10.7881 6.83577 10.1162 7.24196C9.11624 7.82296 8.2953 8.66775 7.7432 9.68395C7.23321 10.5867 6.96586 11.6062 6.96719 12.643C6.96832 12.968 6.99811 13.2922 7.0562 13.612C7.2772 15.0924 8.06054 16.4305 9.2432 17.348C9.78007 17.7612 10.2252 18.2815 10.5502 18.876C10.8441 19.4046 11.0194 19.9908 11.0642 20.594C11.0792 20.794 11.0792 20.794 11.2822 20.794H13.1272M13.1382 21.846C12.4992 21.846 11.8612 21.846 11.2222 21.846C11.1172 21.846 11.0802 21.8769 11.0832 21.9849C11.0882 22.3849 11.0832 22.785 11.0882 23.19C11.0881 23.2987 11.1022 23.4069 11.1302 23.512C11.1464 23.6232 11.205 23.7238 11.2937 23.7928C11.3824 23.8618 11.4944 23.8937 11.6062 23.8819H14.6562C14.7156 23.8907 14.7762 23.8877 14.8345 23.8731C14.8927 23.8584 14.9475 23.8324 14.9957 23.7966C15.0439 23.7607 15.0846 23.7157 15.1154 23.6641C15.1462 23.6126 15.1665 23.5554 15.1752 23.496C15.1812 23.4515 15.1812 23.4064 15.1752 23.362C15.1752 22.904 15.1752 22.446 15.1752 21.988C15.1752 21.874 15.1362 21.8459 15.0282 21.8469C14.3972 21.8469 13.7662 21.8469 13.1362 21.8469" fill="#069AFF"/>
<path id="Path 6049" d="M2.3001 12.042C2.6251 12.042 2.9501 12.036 3.2741 12.042C3.34727 12.0356 3.42096 12.0444 3.49058 12.0678C3.5602 12.0912 3.62424 12.1287 3.6787 12.178C3.73317 12.2272 3.77689 12.2872 3.80712 12.3541C3.83736 12.4211 3.85346 12.4935 3.85442 12.5669C3.85539 12.6404 3.8412 12.7132 3.81274 12.7809C3.78427 12.8486 3.74214 12.9097 3.68899 12.9604C3.63584 13.0111 3.5728 13.0503 3.50382 13.0755C3.43484 13.1007 3.3614 13.1114 3.28809 13.107C2.67709 13.107 2.0671 13.107 1.4571 13.107C1.37271 13.1069 1.28846 13.1002 1.2051 13.087C1.08014 13.0732 0.964952 13.0129 0.882485 12.918C0.800017 12.8231 0.75632 12.7006 0.760094 12.575C0.754315 12.5128 0.760858 12.4501 0.779351 12.3904C0.797843 12.3307 0.827926 12.2753 0.867867 12.2273C0.907808 12.1793 0.956831 12.1396 1.01212 12.1105C1.06742 12.0815 1.1279 12.0636 1.1901 12.058C1.24915 12.0472 1.30907 12.0418 1.3691 12.042H2.2971H2.3001Z" fill="#069AFF"/>
<path id="Path 6050" d="M23.8811 13.111C23.5741 13.095 23.1961 13.141 22.8211 13.089C22.7117 13.0779 22.6092 13.0305 22.5298 12.9544C22.4505 12.8783 22.3988 12.7778 22.3831 12.669C22.3602 12.5664 22.3696 12.4592 22.4101 12.3621C22.4505 12.2651 22.5201 12.183 22.6091 12.127C22.7118 12.07 22.8277 12.041 22.9451 12.043C23.5911 12.043 24.2371 12.043 24.8841 12.043C25.0228 12.0318 25.1604 12.075 25.2677 12.1635C25.3751 12.2521 25.4437 12.3789 25.4591 12.5172C25.4744 12.6555 25.4353 12.7944 25.35 12.9043C25.2647 13.0142 25.1399 13.0866 25.0021 13.106C24.9774 13.106 24.9524 13.106 24.9271 13.106C24.7621 13.106 24.5981 13.106 24.4331 13.106H23.8811" fill="#069AFF"/>
<path id="Path 6051" d="M12.5891 1.72695C12.6031 1.42695 12.5641 1.05997 12.6091 0.690967C12.6143 0.561419 12.6708 0.439225 12.766 0.351276C12.8613 0.263328 12.9876 0.216801 13.1171 0.221943H13.1351C13.266 0.221916 13.3917 0.27324 13.4852 0.364856C13.5787 0.456473 13.6325 0.581096 13.6351 0.711963V0.729969C13.6751 1.39697 13.6511 2.06297 13.6511 2.72997C13.6674 2.85778 13.6364 2.98713 13.564 3.09374C13.4917 3.20034 13.3829 3.27685 13.2581 3.30895C13.1292 3.34828 12.99 3.33489 12.871 3.27172C12.7519 3.20854 12.6628 3.10073 12.6231 2.97194C12.6164 2.94963 12.611 2.92693 12.6071 2.90395C12.594 2.82899 12.5873 2.75306 12.5871 2.67696C12.5871 2.38396 12.5871 2.08996 12.5871 1.72496" fill="#069AFF"/>
<path id="Path 6052" d="M4.73909 3.66995C4.81152 3.66987 4.88311 3.68534 4.94902 3.71536C5.01493 3.74538 5.07362 3.78923 5.1211 3.84393C5.5911 4.31693 6.06109 4.78994 6.52709 5.26794C6.61626 5.34559 6.67372 5.45336 6.68848 5.57068C6.70323 5.68799 6.67426 5.80662 6.60709 5.90393C6.55001 6.01897 6.45339 6.10959 6.33493 6.15918C6.21647 6.20877 6.08411 6.21403 5.9621 6.17395C5.89345 6.1508 5.83185 6.11053 5.7831 6.05695C5.2921 5.56495 4.82709 5.04795 4.36209 4.53195C4.28866 4.46148 4.24009 4.36906 4.22368 4.26862C4.20727 4.16817 4.2239 4.06512 4.27109 3.97495C4.31047 3.88406 4.37557 3.80669 4.45836 3.75232C4.54115 3.69795 4.63804 3.66897 4.73709 3.66895" fill="#069AFF"/>
<path id="Path 6053" d="M21.4201 21.434C21.3326 21.4372 21.2455 21.4209 21.1651 21.3863C21.0847 21.3517 21.013 21.2997 20.9551 21.234C20.5101 20.777 20.0551 20.334 19.6071 19.876C19.5323 19.8099 19.4809 19.7214 19.4607 19.6237C19.4405 19.5259 19.4526 19.4243 19.4951 19.334C19.5335 19.238 19.5991 19.1554 19.6838 19.0962C19.7686 19.037 19.8688 19.0039 19.9721 19.001C20.0807 18.9984 20.1868 19.0338 20.2721 19.101C20.3803 19.1924 20.4807 19.2927 20.5721 19.401L21.6781 20.51C21.7239 20.5548 21.7667 20.6025 21.8061 20.653C21.8906 20.7575 21.9315 20.8906 21.9203 21.0245C21.9091 21.1584 21.8467 21.2829 21.7461 21.372C21.6641 21.449 21.5611 21.435 21.4201 21.438" fill="#069AFF"/>
<path id="Path 6054" d="M4.77001 21.433C4.45701 21.433 4.297 21.318 4.232 21.065C4.21364 20.9883 4.21511 20.9083 4.23628 20.8323C4.25745 20.7564 4.29762 20.6871 4.353 20.631C4.439 20.531 4.53601 20.44 4.63001 20.346C5.00134 19.9747 5.37334 19.6033 5.746 19.232C5.79949 19.1776 5.85772 19.1281 5.92 19.084C6.01343 19.0193 6.12684 18.99 6.23992 19.0014C6.35299 19.0127 6.45832 19.064 6.537 19.146C6.6174 19.223 6.66981 19.3246 6.68593 19.4347C6.70205 19.5448 6.68096 19.6572 6.62601 19.754C6.58885 19.8159 6.54417 19.873 6.493 19.924C6.046 20.374 5.593 20.824 5.149 21.271C5.1022 21.3249 5.04377 21.3675 4.97812 21.3956C4.91247 21.4236 4.84132 21.4364 4.77001 21.433Z" fill="#069AFF"/>
<path id="Path 6055" d="M19.4541 5.75295C19.452 5.68614 19.4636 5.61961 19.488 5.55739C19.5124 5.49517 19.5492 5.43854 19.5961 5.39095C20.0841 4.90095 20.5681 4.40994 21.0621 3.92894C21.1484 3.83601 21.268 3.78111 21.3947 3.77623C21.5214 3.77136 21.6449 3.81694 21.7381 3.90297C21.7499 3.91354 21.7609 3.9249 21.7711 3.93697C21.8177 3.97812 21.8557 4.02803 21.883 4.08388C21.9102 4.13973 21.9262 4.20043 21.93 4.26247C21.9339 4.32451 21.9254 4.38669 21.9052 4.44545C21.8849 4.50422 21.8533 4.55843 21.8121 4.60497C21.8022 4.61669 21.7915 4.6277 21.7801 4.63796C21.3131 5.11896 20.8431 5.59695 20.3581 6.05895C20.262 6.16093 20.1294 6.22062 19.9894 6.22493C19.8493 6.22925 19.7133 6.17783 19.6111 6.08196C19.5517 6.02666 19.5061 5.95813 19.4781 5.88195C19.4671 5.83989 19.4591 5.79713 19.4541 5.75396" fill="#069AFF"/>
<g id="Group 45">
<path id="Path 59" d="M9.51123 10.061V10.761H9.89622V14.39H10.8512V10.061H9.51123Z" fill="#069AFF"/>
<path id="Path 60" d="M16.6161 11.71C16.5436 11.5075 16.4097 11.3327 16.2331 11.21C16.0487 11.0921 15.8329 11.0328 15.6141 11.04H15.5721C15.3559 11.0331 15.1427 11.0924 14.9611 11.21C14.7866 11.3333 14.6551 11.5081 14.5851 11.71C14.5801 11.721 14.5771 11.735 14.5731 11.747C14.5731 11.735 14.5661 11.721 14.5611 11.71C14.4915 11.5085 14.3608 11.3337 14.1871 11.21C14.0048 11.0915 13.7904 11.0321 13.5731 11.04H13.5321C13.3159 11.0331 13.1027 11.0924 12.9211 11.21C12.747 11.3329 12.6164 11.508 12.5481 11.71C12.5173 11.7949 12.4932 11.8822 12.4761 11.971V11.14H11.7231V14.39H12.6721V12.5C12.6644 12.3378 12.7171 12.1785 12.8201 12.053C12.8717 11.9962 12.9352 11.9515 13.0061 11.9223C13.077 11.8931 13.1535 11.88 13.2301 11.884C13.3032 11.8801 13.3762 11.8931 13.4435 11.9219C13.5107 11.9507 13.5705 11.9945 13.6181 12.05C13.7152 12.1728 13.7645 12.3266 13.7571 12.483V14.383H14.7121V12.5C14.7038 12.3376 14.757 12.1779 14.8611 12.053C14.9111 11.9969 14.9729 11.9526 15.0421 11.9234C15.1113 11.8942 15.1861 11.8807 15.2611 11.884C15.3351 11.8798 15.4091 11.8926 15.4774 11.9214C15.5457 11.9501 15.6065 11.9941 15.6551 12.05C15.7525 12.1727 15.8023 12.3265 15.7951 12.483V14.383H16.7431V12.533C16.7516 12.2532 16.7085 11.9742 16.6161 11.71Z" fill="#069AFF"/>
</g>
</g>
</svg>
