<svg width="15" height="21" viewBox="0 0 15 21" fill="none" xmlns="http://www.w3.org/2000/svg">
<g id="Group 8264">
<path id="Path 6048" d="M7.72311 20.594C7.25811 20.594 6.7941 20.584 6.3301 20.594C5.9296 20.6157 5.53578 20.4848 5.22781 20.2279C4.91984 19.9709 4.7206 19.6069 4.67013 19.209C4.63298 19.0271 4.61521 18.8417 4.61712 18.656C4.61712 17.978 4.61712 17.3 4.61712 16.622C4.61875 16.1171 4.50859 15.6181 4.29455 15.1608C4.08051 14.7035 3.76787 14.2992 3.37911 13.977C2.72902 13.4391 2.15242 12.8182 1.66412 12.13C1.06331 11.2108 0.681194 10.166 0.547114 9.07601C0.422872 8.10836 0.500943 7.12548 0.776362 6.18957C1.05178 5.25366 1.51855 4.38514 2.14712 3.63903C2.76423 2.87713 3.53101 2.24986 4.40011 1.79601C5.09228 1.42694 5.83906 1.17105 6.61212 1.03802C7.88537 0.828068 9.19186 0.973047 10.3881 1.45702C11.3409 1.8149 12.1992 2.38618 12.8971 3.12704C13.9151 4.1738 14.5951 5.50219 14.8491 6.94002C15.1833 8.73526 14.8088 10.5901 13.8041 12.115C13.3585 12.7801 12.8103 13.3704 12.1801 13.864C11.4626 14.4515 10.9919 15.287 10.8611 16.205C10.8418 16.3375 10.8321 16.4712 10.8321 16.605C10.8321 17.4 10.8321 18.195 10.8321 18.99C10.8371 19.2295 10.7865 19.467 10.6843 19.6837C10.5821 19.9004 10.4311 20.0905 10.2431 20.239C9.96083 20.4691 9.60732 20.5939 9.24313 20.592C8.73513 20.592 8.22613 20.592 7.71713 20.592M7.71713 16.435H9.64312C9.75012 16.435 9.79011 16.401 9.80111 16.29C9.85028 15.8004 9.97721 15.3217 10.1771 14.872C10.5391 14.0747 11.0838 13.3737 11.7671 12.826C12.1077 12.5468 12.4148 12.229 12.6821 11.879C13.1697 11.2353 13.5249 10.5013 13.727 9.71944C13.9292 8.93761 13.9745 8.12345 13.8601 7.32403C13.7391 6.39953 13.4039 5.51605 12.8811 4.74401C12.2805 3.8261 11.4416 3.0888 10.4541 2.61101C9.35415 2.07577 8.1194 1.88113 6.90811 2.05202C6.12431 2.152 5.37014 2.41498 4.69412 2.82403C3.69019 3.40722 2.86585 4.25508 2.31112 5.27502C1.79906 6.18179 1.53035 7.20566 1.53112 8.24703C1.5331 8.57401 1.56321 8.90019 1.62112 9.22201C1.84404 10.709 2.63212 12.0526 3.82113 12.973C4.35973 13.3886 4.80642 13.9113 5.13311 14.508C5.42855 15.039 5.60463 15.628 5.6491 16.234C5.6651 16.434 5.66513 16.434 5.86813 16.434H7.7221M7.73312 17.49C7.09112 17.49 6.45013 17.49 5.80813 17.49C5.70313 17.49 5.66512 17.521 5.66812 17.629C5.67412 18.029 5.67312 18.436 5.67312 18.84C5.6741 18.9487 5.68819 19.0568 5.71511 19.162C5.73129 19.274 5.79024 19.3753 5.87957 19.4446C5.9689 19.514 6.08166 19.5461 6.19412 19.534H9.25711C9.32811 19.5449 9.40069 19.539 9.46896 19.5166C9.53722 19.4942 9.59927 19.456 9.65002 19.4052C9.70077 19.3543 9.73882 19.2922 9.76107 19.2239C9.78333 19.1556 9.78918 19.083 9.77813 19.012C9.77813 18.552 9.77813 18.092 9.77813 17.632C9.77813 17.517 9.73913 17.49 9.63113 17.49C8.99713 17.49 8.3641 17.49 7.7311 17.49" fill="#069AFF"/>
<path id="Path 6050" d="M7.20014 15.421C7.21614 15.113 7.17013 12.337 7.22113 11.96C7.23312 11.8504 7.28098 11.7478 7.3573 11.6683C7.43362 11.5887 7.53412 11.5366 7.64313 11.52C7.7464 11.4971 7.85422 11.5067 7.95182 11.5475C8.04941 11.5883 8.13195 11.6584 8.18811 11.748C8.24516 11.851 8.27414 11.9673 8.27213 12.085C8.27213 12.734 8.27213 15.779 8.27213 16.428C8.28391 16.5675 8.24081 16.706 8.15198 16.8141C8.06316 16.9222 7.93561 16.9914 7.79654 17.0069C7.65747 17.0224 7.51785 16.983 7.40738 16.8971C7.29692 16.8112 7.22434 16.6856 7.20511 16.547C7.20312 16.5221 7.20312 16.497 7.20511 16.472C7.20011 16.306 7.20511 16.141 7.20511 15.972V15.417" fill="#069AFF"/>
<path id="Path 65" d="M8.51508 7.73502L10.3411 5.41803H8.96207L6.98907 7.92603V5.41803H5.78906V10.773H6.98907V8.27304H7.45807L9.30707 10.773H10.7601L8.51508 7.73502Z" fill="#069AFF"/>
</g>
</svg>
