<svg width="28" height="11" viewBox="0 0 28 11" fill="none" xmlns="http://www.w3.org/2000/svg">
<path d="M1.332 6.536V5.183H2.894C3.20933 5.183 3.47333 5.12067 3.686 4.996C3.906 4.87133 4.071 4.699 4.181 4.479C4.29833 4.259 4.357 4.006 4.357 3.72C4.357 3.434 4.29833 3.181 4.181 2.961C4.071 2.741 3.906 2.57233 3.686 2.455C3.47333 2.33033 3.20933 2.268 2.894 2.268H1.332V0.915H2.762C3.43667 0.915 4.00867 1.025 4.478 1.245C4.95467 1.465 5.31767 1.78033 5.567 2.191C5.81633 2.59433 5.941 3.07467 5.941 3.632V3.808C5.941 4.36533 5.81633 4.84933 5.567 5.26C5.31767 5.66333 4.95467 5.97867 4.478 6.206C4.00867 6.426 3.43667 6.536 2.762 6.536H1.332ZM-0.00999996 9V0.915H1.552V9H-0.00999996ZM9.64826 11.002V0.464H11.1113V11.002H9.64826ZM10.5833 11.002V9.748H12.3653V11.002H10.5833ZM10.5833 1.718V0.464H12.3653V1.718H10.5833ZM15.1782 9L13.1322 0.97H14.7492L16.4102 7.955L15.9812 7.702H17.0812L16.5972 7.955L17.9062 1.278H19.2482L17.6202 9H15.1782ZM19.9742 9L18.2032 1.278H19.6002L21.1072 7.955L20.6342 7.702H21.7122L21.2942 7.955L22.7572 0.97H24.2862L22.4602 9H19.9742ZM27.7679 11.002H26.3049V0.464H27.7679V11.002ZM26.8329 11.002H25.0509V9.748H26.8329V11.002ZM26.8329 1.718H25.0509V0.464H26.8329V1.718Z" fill="#069AFF"/>
</svg>
