<svg xmlns="http://www.w3.org/2000/svg" width="42" height="14" fill="none"><path d="M3.265.699H.372v12.88h2.893V.699Zm13.88 0H13.84l-4.747 6.04V.699H6.2v12.88h2.893V7.565h1.12l4.453 6.014h3.494l-5.4-7.307L17.145.699Zm10.427.48c-.773-.56-1.773-.84-3-.84s-2.227.28-3.013.84c-.787.56-1.36 1.32-1.734 2.266-.373.96-.56 2.027-.56 3.214v.96c0 .84.094 1.653.28 2.413.187.76.494 1.427.907 2 .413.573.96 1.027 1.64 1.373.68.334 1.493.507 2.467.507.973 0 1.786-.173 2.453-.507a4.298 4.298 0 0 0 1.627-1.373 5.83 5.83 0 0 0 .906-2c.187-.76.28-1.56.28-2.413v-.96c0-1.187-.186-2.254-.56-3.214-.373-.946-.946-1.706-1.72-2.266h.027Zm-.307 9.92c-.573.826-1.466 1.24-2.693 1.24s-2.12-.414-2.707-1.254c-.573-.84-.866-2.16-.866-3.973 0-1.813.293-3.187.88-4 .586-.813 1.48-1.213 2.693-1.213s2.093.4 2.667 1.213c.586.813.88 2.16.88 4.04s-.28 3.12-.854 3.947Zm13.92-2.507a3.49 3.49 0 0 0-.826-1.093 4.118 4.118 0 0 0-1.214-.72v-.174c.36-.146.694-.36.974-.613.293-.253.52-.56.68-.92.16-.36.253-.747.253-1.2 0-.747-.2-1.373-.587-1.893a3.594 3.594 0 0 0-1.56-1.187c-.653-.28-1.373-.413-2.16-.413-.786 0-1.493.133-2.146.413-.654.28-1.174.68-1.574 1.187-.4.52-.586 1.146-.586 1.893 0 .453.08.853.253 1.2s.4.653.693.92c.294.253.614.467.96.613v.174c-.453.16-.853.4-1.2.706a3.25 3.25 0 0 0-.826 1.08c-.2.414-.307.88-.307 1.4 0 .774.2 1.454.613 2.054.4.586.96 1.053 1.68 1.373.72.32 1.534.493 2.44.493.907 0 1.747-.16 2.467-.493.707-.333 1.267-.787 1.68-1.373.4-.587.613-1.267.613-2.054A3.16 3.16 0 0 0 41.2 8.58l-.014.013Zm-7.093-4.667c0-.72.24-1.253.733-1.586.494-.347 1.12-.507 1.92-.507.8 0 1.427.173 1.92.507.494.333.734.866.734 1.6 0 .733-.24 1.253-.72 1.6-.48.346-1.12.52-1.92.52-.8 0-1.427-.174-1.92-.52-.494-.347-.734-.88-.734-1.6l-.013-.014Zm5.36 7.334c-.253.386-.6.68-1.053.88-.454.2-1.014.306-1.654.306-.64 0-1.2-.106-1.653-.306-.453-.2-.813-.494-1.053-.88-.24-.387-.36-.827-.36-1.347s.12-.96.36-1.347c.24-.373.586-.666 1.053-.88.467-.213 1.013-.306 1.653-.306.64 0 1.214.106 1.68.306.467.2.814.494 1.054.88.24.387.36.827.36 1.347s-.12.973-.374 1.347h-.013Z" fill="#151C33"/></svg>