<svg width="42" height="15" viewBox="0 0 42 15" fill="none" xmlns="http://www.w3.org/2000/svg">
<path d="M8.03876 6.33865C7.42543 5.99199 6.69205 5.81866 5.82539 5.81866C5.06539 5.81866 4.39872 5.96531 3.82539 6.24531C3.25206 6.52531 2.79874 6.96531 2.46541 7.53864C2.45208 7.56531 2.43874 7.61865 2.42541 7.64531C2.42541 6.68531 2.5454 5.87199 2.7854 5.19199C3.0254 4.52532 3.4254 4.00533 3.99873 3.65867C4.57206 3.312 5.34538 3.12532 6.31871 3.12532C6.77205 3.12532 7.17208 3.13865 7.51874 3.16532C7.86541 3.19199 8.22541 3.21866 8.59874 3.25866V1.57865C8.22541 1.53865 7.87869 1.49867 7.54536 1.47201C7.21202 1.44534 6.82539 1.43201 6.41206 1.43201C4.51873 1.43201 3.07874 1.952 2.09208 2.992C1.10541 4.032 0.612061 5.53865 0.612061 7.49865V8.27198C0.612061 9.05864 0.692064 9.79197 0.865397 10.4986C1.03873 11.2053 1.3054 11.832 1.6654 12.3653C2.0254 12.8986 2.53205 13.3386 3.14538 13.6453C3.75871 13.952 4.51873 14.112 5.41206 14.112C6.37206 14.112 7.19876 13.9386 7.86542 13.5786C8.54542 13.2186 9.05204 12.7253 9.39871 12.0853C9.74537 11.4453 9.91872 10.712 9.91872 9.88532C9.91872 9.05865 9.75876 8.36531 9.45209 7.75198C9.13209 7.13865 8.67871 6.65865 8.06537 6.31198L8.03876 6.33865ZM7.69208 11.232C7.49208 11.6053 7.19871 11.8986 6.81204 12.1253C6.42537 12.3386 5.94539 12.4586 5.37206 12.4586C4.75873 12.4586 4.25208 12.352 3.85209 12.1253C3.45209 11.8986 3.15875 11.6053 2.97208 11.2186C2.78542 10.832 2.69205 10.4186 2.69205 9.96532C2.69205 9.40532 2.81208 8.93865 3.05208 8.56531C3.29208 8.19198 3.62541 7.91198 4.05208 7.71198C4.47874 7.52532 4.95871 7.432 5.47871 7.432C5.99871 7.432 6.49209 7.53865 6.86543 7.75198C7.23876 7.96531 7.51876 8.25865 7.70543 8.63198C7.8921 9.00532 7.98538 9.44532 7.98538 9.95199C7.98538 10.4587 7.89208 10.872 7.69208 11.2586V11.232Z" fill="#151C33"/>
<path d="M18.5987 6.37869C17.972 5.99203 17.1854 5.80537 16.2654 5.80537C15.612 5.80537 15.052 5.91204 14.5854 6.1387C14.3587 6.24537 14.1587 6.36536 13.9587 6.49869L14.2787 3.2587H19.492V1.56537H12.732L12.1054 8.20535H13.9454C14.1721 7.95202 14.4787 7.7387 14.8654 7.59203C15.2521 7.44536 15.652 7.36537 16.052 7.36537C16.572 7.36537 17.0387 7.48536 17.4254 7.71202C17.812 7.93869 18.1053 8.24536 18.3187 8.63203C18.5187 9.01869 18.6253 9.44536 18.6253 9.92536C18.6253 10.4054 18.5187 10.832 18.3053 11.2187C18.092 11.6054 17.7987 11.8987 17.412 12.112C17.0254 12.3254 16.572 12.432 16.0653 12.432C15.5587 12.432 15.1053 12.3254 14.7187 12.112C14.3453 11.8987 14.0387 11.6053 13.8254 11.2453C13.612 10.8853 13.5054 10.4587 13.5054 9.99203H11.572C11.572 10.7254 11.7454 11.392 12.092 12.032C12.4387 12.6587 12.9454 13.1654 13.6121 13.552C14.2787 13.9387 15.0787 14.1253 16.0387 14.1253C16.9987 14.1253 17.8387 13.9253 18.5054 13.5387C19.172 13.152 19.6787 12.6453 20.0254 12.0187C20.372 11.392 20.5453 10.7387 20.5453 10.0454V9.83202C20.5453 9.13868 20.3721 8.48535 20.0387 7.87202C19.7054 7.25869 19.2254 6.76535 18.5854 6.39202L18.5987 6.37869Z" fill="#151C33"/>
<path d="M30.4787 2.01868C29.7187 1.48534 28.7453 1.21869 27.5587 1.21869C26.372 1.21869 25.3987 1.48534 24.6387 2.01868C23.8787 2.55201 23.3054 3.27202 22.9454 4.17868C22.5854 5.08535 22.3987 6.09868 22.3987 7.21868V8.13868C22.3987 8.93868 22.492 9.71201 22.6787 10.432C22.8654 11.152 23.172 11.792 23.572 12.3387C23.9854 12.8853 24.5187 13.3253 25.172 13.6453C25.8254 13.9653 26.6253 14.1253 27.5587 14.1253C28.492 14.1253 29.292 13.9653 29.9454 13.6453C30.5987 13.3253 31.132 12.8987 31.532 12.3387C31.9454 11.792 32.2387 11.152 32.4254 10.432C32.612 9.71201 32.7054 8.95201 32.7054 8.13868V7.21868C32.7054 6.09868 32.5187 5.08535 32.1453 4.17868C31.772 3.27202 31.212 2.55201 30.4653 2.01868H30.4787ZM29.932 11.1787C29.4254 11.912 28.6253 12.272 27.5453 12.272C26.4653 12.272 25.6787 11.8987 25.1587 11.1653C24.6387 10.432 24.3853 9.25868 24.3853 7.65868C24.3853 6.05868 24.6387 4.83201 25.1587 4.11201C25.6787 3.39202 26.4654 3.03202 27.5321 3.03202C28.5987 3.03202 29.3853 3.39202 29.9053 4.11201C30.4253 4.83201 30.6787 6.03201 30.6787 7.69868C30.6787 9.36534 30.4254 10.4453 29.9187 11.1787H29.932Z" fill="#151C33"/>
<path d="M41.572 3.23203C41.4253 2.80536 41.1853 2.40536 40.8786 2.05869C40.572 1.69869 40.172 1.4187 39.7187 1.20536C39.252 0.992029 38.7054 0.885376 38.092 0.885376C37.4787 0.885376 36.9187 0.992029 36.4521 1.20536C35.9854 1.4187 35.5987 1.71203 35.292 2.05869C34.9853 2.41869 34.7454 2.80536 34.5987 3.23203C34.452 3.6587 34.3721 4.0987 34.3721 4.52536V4.7387C34.3721 5.12537 34.4387 5.5387 34.5854 5.96536C34.732 6.39203 34.9587 6.79202 35.2654 7.16535C35.572 7.53868 35.9587 7.83202 36.4254 8.05868C36.892 8.28535 37.452 8.39201 38.092 8.39201C38.732 8.39201 39.2787 8.28535 39.7587 8.05868C40.2254 7.83202 40.612 7.53868 40.9187 7.16535C41.2254 6.79202 41.452 6.39203 41.5987 5.96536C41.7454 5.5387 41.8253 5.12537 41.8253 4.7387V4.52536C41.8253 4.0987 41.7454 3.6587 41.5987 3.23203H41.572ZM40.4254 5.6587C40.3054 5.9787 40.1454 6.2587 39.9187 6.51203C39.692 6.76537 39.4254 6.95204 39.1187 7.0987C38.7987 7.24537 38.452 7.31202 38.0653 7.31202C37.6787 7.31202 37.3187 7.24537 37.012 7.0987C36.7054 6.95204 36.4253 6.76537 36.212 6.51203C35.9853 6.2587 35.8254 5.9787 35.7054 5.6587C35.5854 5.3387 35.5321 5.00536 35.5321 4.64536C35.5321 4.27203 35.5854 3.91204 35.7054 3.59204C35.8121 3.27204 35.9853 2.9787 36.212 2.7387C36.4387 2.49871 36.7054 2.2987 37.012 2.16536C37.332 2.03203 37.6787 1.96537 38.0653 1.96537C38.452 1.96537 38.8121 2.03203 39.1187 2.16536C39.4254 2.2987 39.692 2.49871 39.9187 2.7387C40.132 2.9787 40.3054 3.27204 40.4254 3.59204C40.5454 3.91204 40.5987 4.25869 40.5987 4.64536C40.5987 5.00536 40.5454 5.3387 40.4254 5.6587Z" fill="#151C33"/>
</svg>
