<svg width="145" height="23" fill="none" xmlns="http://www.w3.org/2000/svg"><path d="M117.25 12.685 127.584.47M111.61 12.685 121.944.47M105.97 12.685 116.304.47m22.946 12.214 5-5.907m-10.333 5.907L144.25.47m-15.973 12.214L138.61.47m-15.973 12.214L132.97.47M83.25 12.685 93.585.47M77.61 12.685 87.945.47M71.97 12.685 82.304.47m17.613 12.214L110.25.47M94.277 12.685 104.61.47M88.637 12.685 98.971.47M49.25 12.685 59.584.47M43.61 12.685 53.944.47M37.97 12.685 48.304.47m17.613 12.214L76.251.47M60.276 12.685 70.611.47M54.636 12.685 64.971.47M15.25 12.685 25.584.47M9.61 12.685 19.944.47M1.357 8.685 8.304.47M3.971 12.685 14.304.47m17.613 12.214L42.251.47M26.277 12.685 36.611.47M20.637 12.685 30.971.47M.757.685H143.45m-142.693 12H143.45" stroke="#878787" stroke-width=".827"/><path d="M120.957 12.671H25.984v5.014h94.973V12.67Z" fill="#fff"/><path d="M120.957 12.671H25.984v5.014h94.973V12.67Zm2.44 5.014H22.784v4.827h100.613v-4.827Z" stroke="#878787" stroke-width=".827"/></svg>