<svg width="36" height="19" fill="none" xmlns="http://www.w3.org/2000/svg"><path d="m14.53 6.432 3.414-3.414 3.413 3.414a1.09 1.09 0 0 0 1.547 0 1.094 1.094 0 0 0 0-1.547L18.717.698a1.094 1.094 0 0 0-1.546 0l-4.187 4.187a1.094 1.094 0 0 0 1.547 1.547Zm19.6 9.92h-2.946l2.693-2.694a1.095 1.095 0 0 0-1.546-1.546l-4.24 4.24h-2.254l2.694-2.694a1.095 1.095 0 0 0-1.547-1.546l-4.24 4.24h-2.253l2.693-2.694a1.094 1.094 0 0 0-1.547-1.546l-4.24 4.24h-2.253l2.693-2.694a1.094 1.094 0 0 0-1.546-1.546l-4.24 4.24H9.798l2.693-2.694a1.095 1.095 0 0 0-1.547-1.546l-4.24 4.24H4.451l2.693-2.694a1.094 1.094 0 0 0-1.546-1.546l-4.56 4.56a1.066 1.066 0 0 0-.24.36 1.143 1.143 0 0 0 0 .84c.106.266.32.48.6.6.133.053.28.08.413.08h32.386a1.09 1.09 0 0 0 1.094-1.094c0-.6-.493-1.093-1.093-1.093l-.067-.013Z" fill="#069AFF"/></svg>