<svg xmlns="http://www.w3.org/2000/svg" width="40" height="14" fill="none"><path d="M3.707.245H.813v12.88h2.894V.245ZM14.16.699c-.787-.36-1.72-.547-2.813-.547H6.64v12.987h2.893V9.445h1.814c1.093 0 2.026-.186 2.813-.546.787-.36 1.386-.88 1.8-1.56.413-.68.627-1.48.627-2.387v-.28c0-.947-.214-1.747-.627-2.413-.414-.667-1.014-1.187-1.8-1.547V.699Zm-.76 5.226a1.83 1.83 0 0 1-.747.747c-.32.173-.706.267-1.16.267h-1.96V2.645h1.96c.454 0 .827.08 1.16.254.32.173.574.413.747.746.173.32.266.707.266 1.16 0 .427-.093.8-.266 1.12Zm12.347-.533c-.64-.373-1.414-.56-2.334-.56-.786 0-1.48.147-2.093.453-.6.307-1.08.76-1.427 1.374l-.12.24v-.294c0-1.053.134-1.96.4-2.706.267-.747.72-1.32 1.347-1.72.627-.4 1.467-.6 2.547-.6.466 0 .866 0 1.2.04.333.04.693.053 1.08.106V.285c-.374-.053-.72-.08-1.04-.106-.32-.027-.707-.04-1.16-.04-1.92 0-3.387.546-4.4 1.653-1.014 1.107-1.52 2.667-1.52 4.707v.853c0 .813.08 1.587.24 2.333.16.747.426 1.4.8 1.974a3.833 3.833 0 0 0 1.493 1.346c.627.32 1.413.494 2.36.494 1 0 1.84-.187 2.52-.56a3.725 3.725 0 0 0 1.533-1.547c.347-.653.507-1.4.507-2.24 0-.84-.16-1.56-.48-2.2-.32-.64-.8-1.16-1.44-1.52l-.014-.04Zm-.027 5.227a2.377 2.377 0 0 1-.973 1.013c-.44.253-.974.373-1.627.373-.693 0-1.267-.133-1.707-.386a2.32 2.32 0 0 1-.986-1.04 3.198 3.198 0 0 1-.32-1.427c0-.627.133-1.147.4-1.573.266-.427.64-.76 1.12-.974.48-.226 1.013-.333 1.613-.333.6 0 1.12.12 1.547.36.413.24.733.587.946 1.013.214.44.32.934.32 1.494 0 .56-.106 1.066-.32 1.493l-.013-.013Zm13.093-3.694c-.32-.64-.8-1.16-1.44-1.52-.64-.373-1.413-.56-2.333-.56-.787 0-1.48.147-2.093.454-.6.306-1.08.76-1.427 1.373l-.12.24v-.293c0-1.054.133-1.96.4-2.707.267-.747.72-1.32 1.347-1.72.626-.4 1.466-.6 2.546-.6.467 0 .867 0 1.2.04.334.04.694.053 1.08.107V.299c-.373-.054-.72-.08-1.04-.107-.32-.027-.706-.04-1.16-.04-1.92 0-3.386.547-4.4 1.653-1.013 1.107-1.52 2.667-1.52 4.707v.853c0 .814.08 1.587.24 2.334.16.746.427 1.4.8 1.973a3.834 3.834 0 0 0 1.494 1.347c.626.32 1.413.493 2.36.493 1 0 1.84-.187 2.52-.56a3.725 3.725 0 0 0 1.533-1.547c.347-.653.507-1.4.507-2.24 0-.84-.16-1.56-.48-2.2l-.014-.04Zm-1.466 3.694a2.377 2.377 0 0 1-.974 1.013c-.44.253-.973.373-1.626.373-.694 0-1.267-.133-1.707-.386a2.32 2.32 0 0 1-.987-1.04 3.198 3.198 0 0 1-.32-1.427c0-.627.134-1.147.4-1.573a2.5 2.5 0 0 1 1.12-.974c.48-.226 1.014-.333 1.614-.333.6 0 1.12.12 1.546.36.414.24.734.587.947 1.013.213.44.32.934.32 1.494 0 .56-.107 1.066-.32 1.493l-.013-.013Z" fill="#151C33"/></svg>