<svg xmlns="http://www.w3.org/2000/svg" width="117" height="23" fill="none"><path d="m51.636 14.39-6.147 8.214h6.454l2.92-3.893-3.227-4.32ZM.143.79v16.094a5.656 5.656 0 0 0 5.653 5.653h11.373v-5.106H6.863c-.88 0-1.587-.707-1.587-1.587V.79H.143Zm25.787 20.6c1.533.84 3.32 1.267 5.333 1.267 2.013 0 3.853-.427 5.36-1.267 1.506-.84 2.706-2 3.56-3.453.853-1.453 1.28-3.146 1.28-5.026V.857h-5.014v11.854c0 1.026-.226 1.96-.68 2.746a4.852 4.852 0 0 1-1.853 1.854c-.773.44-1.667.666-2.667.666-.933 0-1.8-.226-2.56-.666a4.81 4.81 0 0 1-1.8-1.854c-.44-.786-.653-1.706-.653-2.733V.87h-5.2v12.053c0 1.88.427 3.573 1.28 5.027.853 1.453 2.053 2.613 3.587 3.453l.026-.014Zm78.252-15.2a5.006 5.006 0 0 1 2.547-.666c1 0 1.893.227 2.666.667.774.44 1.4 1.066 1.854 1.853.453.787.68 1.707.68 2.747v11.853h5.013V10.59c0-1.88-.427-3.574-1.28-5.027a9.233 9.233 0 0 0-3.56-3.453c-1.507-.84-3.307-1.267-5.36-1.267-2.053 0-3.813.427-5.333 1.267-1.52.84-2.734 2-3.587 3.453-.853 1.453-1.28 3.147-1.28 5.027v12.053h5.2V10.79c0-1.027.227-1.947.653-2.734a4.811 4.811 0 0 1 1.8-1.853l-.013-.013ZM81.343.59c-6.867-.44-12.534 5.4-11.8 12.32.546 5.16 4.693 9.307 9.853 9.854 6.92.733 12.76-4.92 12.32-11.8C91.356 5.43 86.876.937 81.329.59h.014Zm-.067 17.28a6.35 6.35 0 0 1-6.96-6.96c.293-2.96 2.693-5.36 5.666-5.666a6.35 6.35 0 0 1 6.96 6.96c-.293 2.96-2.693 5.36-5.666 5.667ZM51.943.897h-6.454l16.254 21.707h6.453L51.943.897ZM62.049 9.11 68.196.898h-6.454l-2.92 3.894 3.227 4.32Z" fill="#fff"/></svg>