<svg width="41" height="19" fill="none" xmlns="http://www.w3.org/2000/svg"><path d="M37.877 11.431V6.018a1.09 1.09 0 0 0-1.093-1.093h-2.933l2.693-2.694A1.094 1.094 0 0 0 34.998.685l-4.24 4.24h-2.254l2.694-2.694A1.094 1.094 0 0 0 29.65.685l-4.24 4.24h-2.253L25.85 2.23A1.094 1.094 0 0 0 24.304.685l-4.24 4.24h-2.253l2.693-2.694A1.095 1.095 0 0 0 18.958.685l-4.24 4.24h-2.254l2.694-2.694A1.094 1.094 0 0 0 13.61.685l-4.24 4.24H7.118L9.81 2.23A1.094 1.094 0 0 0 8.264.685l-4.56 4.56a1.066 1.066 0 0 0-.24.36c-.053.133-.08.28-.08.413v5.413a3.728 3.728 0 0 0-2.653 3.56 3.75 3.75 0 0 0 3.747 3.747 3.75 3.75 0 0 0 3.746-3.747c0-1.68-1.12-3.093-2.64-3.56v-4.32h30.187v4.32a3.717 3.717 0 0 0-2.64 3.56 3.75 3.75 0 0 0 3.746 3.747 3.75 3.75 0 0 0 3.747-3.747c0-1.68-1.12-3.093-2.653-3.56h-.093Zm-33.48 5.107a1.548 1.548 0 0 1 0-3.093 1.548 1.548 0 0 1 0 3.093Zm32.387 0a1.548 1.548 0 0 1 0-3.093 1.548 1.548 0 0 1 0 3.093Z" fill="#069AFF"/></svg>