<svg width="144" height="37" fill="none" xmlns="http://www.w3.org/2000/svg"><path d="M116.637 12.618 126.904.485m-15.867 12.133L121.304.485m-15.867 12.133L115.704.485m22.786 12.133 4.96-5.867m-10.266 5.867L143.45.485m-15.866 12.133L137.85.485m-15.853 12.133L132.264.485m-49.4 12.133L93.13.485M77.264 12.618 87.53.485M71.663 12.618 81.93.485m17.48 12.133L109.677.485M93.81 12.618 104.078.485M88.224 12.618 98.49.485m-49.4 12.133L59.358.485M43.491 12.618 53.757.485M37.891 12.618 48.157.485m17.48 12.133L75.904.485M60.037 12.618 70.304.485M54.45 12.618 64.718.485m-49.4 12.133L25.584.485M9.717 12.618 19.984.485M1.517 8.645 8.424.485M4.117 12.618 14.384.485m17.48 12.133L42.13.485M26.264 12.618 36.53.485M20.677 12.618 30.944.485M.917.698h141.747M.917 12.618h141.747" stroke="#878787" stroke-width=".827"/><path d="M120.33 25.845H25.984v4.973h94.346v-4.973Z" fill="#fff"/><path d="M120.33 25.845H25.984v4.973h94.346v-4.973ZM35.557 12.618v.493m87.174 22.507H22.797V30.83h99.934v4.787Zm-87.174-21.56v10.827m75.013-12.267v.493m-75.013 12.24v.494m75.013-11.787v10.827m0 .466v.494" stroke="#878787" stroke-width=".827"/></svg>