<?xml version="1.0" encoding="utf-8"?>
<!-- Generator: Adobe Illustrator 28.3.0, SVG Export Plug-In . SVG Version: 6.00 Build 0)  -->
<svg version="1.1" id="Warstwa_1" xmlns="http://www.w3.org/2000/svg" xmlns:xlink="http://www.w3.org/1999/xlink" x="0px" y="0px"
	 viewBox="0 0 41 19" style="enable-background:new 0 0 41 19;" xml:space="preserve">
<style type="text/css">
	.st0{fill:#069AFF;}
	.st1{fill:none;stroke:#000000;stroke-miterlimit:10;}
</style>
<path class="st0" d="M37.9,11.4V6c0-0.6-0.5-1.1-1.1-1.1c0,0,0,0,0,0h-2.9l2.7-2.7c0.4-0.4,0.4-1.1-0.1-1.5c-0.4-0.4-1.1-0.4-1.5,0
	l-4.2,4.2h-2.3l2.7-2.7c0.4-0.4,0.4-1.1,0-1.5c-0.4-0.4-1.1-0.4-1.5,0l-4.2,4.2h-2.3l2.7-2.7c0.4-0.4,0.4-1.1-0.1-1.5
	c-0.4-0.4-1.1-0.4-1.5,0l-4.2,4.2h-2.3l2.7-2.7c0.4-0.5,0.4-1.1-0.1-1.5c-0.4-0.4-1-0.4-1.5,0l-4.2,4.2h-2.3l2.7-2.7
	c0.4-0.4,0.4-1.1,0-1.5c-0.4-0.4-1.1-0.4-1.5,0L9.4,4.9H7.1l2.7-2.7c0.4-0.4,0.4-1.1-0.1-1.5c-0.4-0.4-1.1-0.4-1.5,0L3.7,5.2
	C3.6,5.3,3.5,5.5,3.5,5.6C3.4,5.7,3.4,5.9,3.4,6v5.4c-1.6,0.5-2.6,1.9-2.7,3.6c0,2.1,1.7,3.7,3.7,3.7c2.1,0,3.7-1.7,3.7-3.7
	c0-1.7-1.1-3.1-2.6-3.6V7.1h30.2v4.3c-1.6,0.5-2.6,1.9-2.6,3.6c0,2.1,1.7,3.7,3.7,3.7c2.1,0,3.7-1.7,3.7-3.7
	C40.6,13.3,39.5,11.9,37.9,11.4L37.9,11.4L37.9,11.4z M4.4,16.5c-0.9,0-1.5-0.8-1.5-1.6c0-0.8,0.7-1.4,1.5-1.5
	c0.9,0,1.5,0.8,1.5,1.6C5.8,15.9,5.2,16.5,4.4,16.5z M36.8,16.5c-0.9,0-1.5-0.8-1.5-1.6c0-0.8,0.7-1.4,1.5-1.5
	c0.9,0,1.5,0.8,1.5,1.6C38.2,15.9,37.6,16.5,36.8,16.5z"/>
<line class="st1" x1="0" y1="18.7" x2="40.6" y2="0.4"/>
<line class="st1" x1="0" y1="0.4" x2="40.6" y2="18.7"/>
</svg>
