<?xml version="1.0" encoding="utf-8"?>
<!-- Generator: Adobe Illustrator 28.3.0, SVG Export Plug-In . SVG Version: 6.00 Build 0)  -->
<svg version="1.1" id="Warstwa_1" xmlns="http://www.w3.org/2000/svg" xmlns:xlink="http://www.w3.org/1999/xlink" x="0px" y="0px"
	 viewBox="0 0 144 37" style="enable-background:new 0 0 144 37;" xml:space="preserve">
<style type="text/css">
	.st0{fill:none;stroke:#878787;stroke-width:0.827;}
	.st1{fill:#FFFFFF;}
	.st2{fill:none;stroke:#000000;stroke-miterlimit:10;}
</style>
<path class="st0" d="M116.6,12.6l10.3-12.1 M111,12.6l10.3-12.1 M105.4,12.6l10.3-12.1 M138.5,12.6l5-5.9 M133.2,12.6l10.3-12.1
	 M127.6,12.6l10.3-12.1 M122,12.6l10.3-12.1 M82.9,12.6L93.1,0.5 M77.3,12.6L87.5,0.5 M71.7,12.6L81.9,0.5 M99.4,12.6l10.3-12.1
	 M93.8,12.6l10.3-12.1 M88.2,12.6L98.5,0.5 M49.1,12.6L59.4,0.5 M43.5,12.6L53.8,0.5 M37.9,12.6L48.2,0.5 M65.6,12.6L75.9,0.5
	 M60,12.6L70.3,0.5 M54.5,12.6L64.7,0.5 M15.3,12.6L25.6,0.5 M9.7,12.6L20,0.5 M1.5,8.6l6.9-8.2 M4.1,12.6L14.4,0.5 M31.9,12.6
	L42.1,0.5 M26.3,12.6L36.5,0.5 M20.7,12.6L30.9,0.5 M0.9,0.7h141.7 M0.9,12.6h141.7"/>
<path class="st1" d="M120.3,25.8H26v5h94.3V25.8z"/>
<path class="st0" d="M120.3,25.8H26v5h94.3V25.8z M35.6,12.6v0.5 M122.7,35.6H22.8v-4.8h99.9V35.6L122.7,35.6z M35.6,14.1v10.8
	 M110.6,12.6v0.5 M35.6,25.4v0.5 M110.6,14.1v10.8 M110.6,25.4v0.5"/>
<line class="st2" x1="0" y1="37" x2="143.4" y2="0.5"/>
<line class="st2" x1="143.5" y1="37" x2="0" y2="0.7"/>
</svg>
